<svg width="291" height="442" viewBox="0 0 291 442" fill="none" xmlns="http://www.w3.org/2000/svg">
<g clip-path="url(#clip0_339_9051)">
<g opacity="0.5" filter="url(#filter0_f_339_9051)">
<ellipse cx="128.5" cy="221.5" rx="84.5" ry="44.5" fill="#80A48B"/>
</g>
<path d="M-262.091 744.791L-844 -305L550.678 -305M-804.114 -305L-222.205 744.791M-764.228 -305L-182.319 744.791M-724.342 -305L-142.433 744.791M-684.456 -305L-102.548 744.791M-644.57 -305L-62.6616 744.791M-604.684 -305L-22.7757 744.791M-564.798 -305L17.1103 744.791M-524.912 -305L56.9962 744.791M-485.027 -305L96.8821 744.791M-445.141 -305L136.768 744.791M-405.255 -305L176.654 744.791M-365.369 -305L216.54 744.791M-325.483 -305L256.426 744.791M-285.597 -305L296.312 744.791M-245.711 -305L336.198 744.791M-205.825 -305L376.084 744.791M-165.939 -305L415.97 744.791M-126.053 -305L455.856 744.791M-86.1671 -305L495.742 744.791M-46.2812 -305L535.627 744.791M-6.39526 -305L575.513 744.791M33.4907 -305L615.399 744.791M73.3766 -305L655.285 744.791M113.263 -305L695.171 744.791M153.148 -305L735.057 744.791M193.034 -305L774.943 744.791M232.92 -305L814.829 744.791M272.806 -305L854.715 744.791M312.692 -305L894.601 744.791M352.578 -305L934.487 744.791M392.464 -305L974.373 744.791M432.35 -305L1014.26 744.791M472.236 -305L1054.14 744.791M512.122 -305L1094.03 744.791M552.008 -305L1133.92 744.791M-261.259 746.293H1133.42M-277.909 716.256L1116.77 716.256M-294.558 686.219L1100.12 686.219M-311.208 656.182L1083.47 656.182M-327.858 626.145L1066.82 626.145M-344.507 596.108L1050.17 596.108M-361.157 566.071L1033.52 566.071M-377.807 536.034L1016.87 536.034M-394.457 505.997L1000.22 505.997M-411.106 475.961L983.572 475.96M-427.756 445.924L966.922 445.924M-444.406 415.887L950.272 415.887M-461.056 385.85L933.622 385.85M-477.705 355.813L916.973 355.813M-494.355 325.776L900.323 325.776M-511.005 295.739L883.673 295.739M-527.655 265.702L867.023 265.702M-544.304 235.665L850.374 235.665M-560.954 205.628L833.724 205.628M-577.604 175.591L817.074 175.591M-594.254 145.554L800.424 145.554M-610.903 115.517L783.775 115.517M-627.553 85.4803L767.125 85.4802M-644.203 55.4433L750.475 55.4433M-660.853 25.4064L733.825 25.4063M-677.502 -4.63053L717.176 -4.63059M-694.152 -34.6675L700.526 -34.6675M-710.802 -64.7044L683.876 -64.7045M-727.452 -94.7414L667.226 -94.7414M-744.101 -124.778L650.577 -124.778M-760.751 -154.815L633.927 -154.815M-777.401 -184.852L617.277 -184.852M-794.051 -214.889L600.627 -214.889M-810.7 -244.926L583.978 -244.926M-827.35 -274.963L567.328 -274.963" stroke="url(#paint0_radial_339_9051)" stroke-linecap="round"/>
<path opacity="0.3" d="M101 176L140.5 175L157.5 206H117.5L101 176Z" fill="#5B8431" fill-opacity="0.2"/>
<path opacity="0.3" d="M174 236L213.5 235L230.5 266H190.5L174 236Z" fill="#5B8431" fill-opacity="0.2"/>
<path opacity="0.3" d="M31 267L70.5 266L87.5 297H47.5L31 267Z" fill="#5B8431" fill-opacity="0.2"/>
</g>
<defs>
<filter id="filter0_f_339_9051" x="-130" y="3" width="517" height="437" filterUnits="userSpaceOnUse" color-interpolation-filters="sRGB">
<feFlood flood-opacity="0" result="BackgroundImageFix"/>
<feBlend mode="normal" in="SourceGraphic" in2="BackgroundImageFix" result="shape"/>
<feGaussianBlur stdDeviation="87" result="effect1_foregroundBlur_339_9051"/>
</filter>
<radialGradient id="paint0_radial_339_9051" cx="0" cy="0" r="1" gradientUnits="userSpaceOnUse" gradientTransform="translate(145.374 220.646) rotate(63.2128) scale(218.838 166.628)">
<stop stop-color="#76BD7D" stop-opacity="0.55"/>
<stop offset="1" stop-color="white" stop-opacity="0"/>
</radialGradient>
<clipPath id="clip0_339_9051">
<rect width="291" height="442" fill="white"/>
</clipPath>
</defs>
</svg>
