<svg xmlns="http://www.w3.org/2000/svg" width="32" height="32" viewBox="0 0 32 32" fill="none">
  <path d="M9.80151 10.0387C9.91264 10.5499 10.083 10.8808 10.2818 11.087C10.7547 14.3788 13.7095 17.1842 16.0827 17.0669C19.1017 16.9187 21.2415 13.6652 21.7219 11.087C21.9207 10.882 22.1121 10.4437 22.2269 9.92878C22.3553 9.33733 22.4936 8.44583 22.138 7.97416C22.117 7.94946 21.9812 7.82475 21.9577 7.80376C22.2973 6.57888 23.0431 4.39336 21.186 2.42886C20.1797 1.36449 18.7819 0.829844 17.5188 0.407556C13.7898 -0.838315 11.1573 0.908868 9.94227 3.81425C9.85461 4.02046 9.28785 5.3256 9.97438 7.80376C9.9077 7.84821 9.8472 7.90501 9.79657 7.97416C9.43973 8.4446 9.67186 9.44722 9.80151 10.0387Z" fill="black"/>
  <path opacity="0.4" d="M29.0872 28.1427C28.9835 25.8769 28.8551 22.2863 26.8758 19.3488C26.8758 19.3488 26.3115 18.5795 24.973 18.0683C24.973 18.0683 22.0664 17.183 20.7279 16.2261L20.1167 16.6447L20.1846 20.6181L16.5149 30.4147C16.4346 30.6295 16.2297 30.7715 16.0012 30.7715C15.7728 30.7715 15.5678 30.6295 15.4876 30.4147L11.8191 20.6181C11.8191 20.6181 11.887 16.657 11.8858 16.6447C11.8944 16.678 11.2733 16.2261 11.2733 16.2261C9.93734 17.183 7.02948 18.0683 7.02948 18.0683C5.691 18.5795 5.12672 19.3488 5.12672 19.3488C3.14863 22.2863 3.01775 25.8769 2.91403 28.1427C2.84241 29.7084 3.17086 30.2924 3.58327 30.4591C8.70258 32.5138 23.2962 32.5138 28.4167 30.4591C28.8316 30.2937 29.1576 29.7084 29.0872 28.1427Z" fill="black"/>
  <path d="M16.1321 18.3326L15.9667 18.3363C15.4333 18.3363 14.8949 18.2325 14.3664 18.0498L15.821 20.2761L14.5158 21.5355L15.8592 29.6936C15.8704 29.764 15.9309 29.8146 16.0025 29.8146C16.0729 29.8146 16.1334 29.764 16.1457 29.6936L17.4891 21.5355L16.1828 20.2761L17.6163 18.0831C17.1483 18.2202 16.6532 18.3116 16.1321 18.3326Z" fill="black"/>
</svg>