<svg xmlns="http://www.w3.org/2000/svg" width="14" height="14" viewBox="0 0 14 14" fill="none">
  <path d="M3.11475 7H10.8906" stroke="black" stroke-width="0.875" stroke-linecap="round" stroke-linejoin="round"/>
  <path d="M9.75308 4.25249C11.2697 5.76916 11.2697 8.23666 9.75308 9.75332C8.23641 11.27 5.77475 11.27 4.25225 9.75332C2.73558 8.23666 2.73558 5.77499 4.25225 4.25249C5.76891 2.73582 8.23641 2.73582 9.75308 4.25249Z" stroke="black" stroke-width="0.875" stroke-linecap="round" stroke-linejoin="round"/>
  <path d="M8.22469 4.25249C8.89552 5.76916 8.89552 8.23666 8.22469 9.75332C7.55385 11.27 6.46302 11.27 5.79219 9.75332C5.12135 8.23666 5.12135 5.77499 5.79219 4.25249C6.46302 2.73582 7.55385 2.73582 8.22469 4.25249Z" stroke="black" stroke-width="0.875" stroke-linecap="round" stroke-linejoin="round"/>
  <path d="M4.08898 1.16663H9.92231C11.5323 1.16663 12.839 2.47329 12.839 4.08329V9.92246C12.839 11.5325 11.5323 12.8333 9.92231 12.8333H4.07731C2.46731 12.8333 1.16064 11.5266 1.16064 9.91663V4.08329C1.16064 2.47329 2.46731 1.16663 4.07731 1.16663H4.08315H4.08898Z" stroke="black" stroke-width="0.875" stroke-linecap="round" stroke-linejoin="round"/>
</svg>