<svg width="24" height="25" viewBox="0 0 24 25" fill="none" xmlns="http://www.w3.org/2000/svg">
<g id="vuesax/bulk/buliding">
<g id="buliding">
<path id="Vector" d="M22 21.2662H2C1.59 21.2662 1.25 21.6062 1.25 22.0162C1.25 22.4262 1.59 22.7662 2 22.7662H22C22.41 22.7662 22.75 22.4262 22.75 22.0162C22.75 21.6062 22.41 21.2662 22 21.2662Z" fill="black"/>
<path id="Vector_2" opacity="0.4" d="M17 2.01624H7C4 2.01624 3 3.80624 3 6.01624V22.0162H21V6.01624C21 3.80624 20 2.01624 17 2.01624Z" fill="black"/>
<g id="Group">
<path id="Vector_3" d="M10 17.2662H7C6.59 17.2662 6.25 16.9262 6.25 16.5162C6.25 16.1062 6.59 15.7662 7 15.7662H10C10.41 15.7662 10.75 16.1062 10.75 16.5162C10.75 16.9262 10.41 17.2662 10 17.2662Z" fill="black"/>
</g>
<g id="Group_2">
<path id="Vector_4" d="M17 17.2662H14C13.59 17.2662 13.25 16.9262 13.25 16.5162C13.25 16.1062 13.59 15.7662 14 15.7662H17C17.41 15.7662 17.75 16.1062 17.75 16.5162C17.75 16.9262 17.41 17.2662 17 17.2662Z" fill="black"/>
</g>
<g id="Group_3">
<path id="Vector_5" d="M10 12.7662H7C6.59 12.7662 6.25 12.4262 6.25 12.0162C6.25 11.6062 6.59 11.2662 7 11.2662H10C10.41 11.2662 10.75 11.6062 10.75 12.0162C10.75 12.4262 10.41 12.7662 10 12.7662Z" fill="black"/>
</g>
<g id="Group_4">
<path id="Vector_6" d="M17 12.7662H14C13.59 12.7662 13.25 12.4262 13.25 12.0162C13.25 11.6062 13.59 11.2662 14 11.2662H17C17.41 11.2662 17.75 11.6062 17.75 12.0162C17.75 12.4262 17.41 12.7662 17 12.7662Z" fill="black"/>
</g>
<g id="Group_5">
<path id="Vector_7" d="M10 8.26624H7C6.59 8.26624 6.25 7.92624 6.25 7.51624C6.25 7.10624 6.59 6.76624 7 6.76624H10C10.41 6.76624 10.75 7.10624 10.75 7.51624C10.75 7.92624 10.41 8.26624 10 8.26624Z" fill="black"/>
</g>
<g id="Group_6">
<path id="Vector_8" d="M17 8.26624H14C13.59 8.26624 13.25 7.92624 13.25 7.51624C13.25 7.10624 13.59 6.76624 14 6.76624H17C17.41 6.76624 17.75 7.10624 17.75 7.51624C17.75 7.92624 17.41 8.26624 17 8.26624Z" fill="black"/>
</g>
</g>
</g>
</svg>
