<svg width="16" height="17" viewBox="0 0 16 17" fill="none" xmlns="http://www.w3.org/2000/svg">
<g id="Contacts">
<path id="Vector" d="M9.80029 7.82666C10.5336 7.82666 11.127 7.23332 11.127 6.49999C11.127 5.76666 10.5336 5.16666 9.80029 5.16666C9.06696 5.16666 8.47363 5.75999 8.47363 6.49332C8.47363 7.22666 9.06696 7.82666 9.80029 7.82666Z" stroke="#666666" stroke-linecap="round" stroke-linejoin="round"/>
<path id="Vector_2" d="M12.4671 11.8333C12.4671 10.6333 11.2738 9.66 9.80046 9.66C8.32712 9.66 7.13379 10.6333 7.13379 11.8333" stroke="#666666" stroke-linecap="round" stroke-linejoin="round"/>
<path id="Vector_3" d="M14.6669 4.50001V12.5C14.6669 13.9667 13.4669 15.1667 12.0002 15.1667H5.9069C4.44023 15.1667 3.24023 13.9667 3.24023 12.5V11.04H3.80691C4.54024 11.04 5.14024 10.44 5.14024 9.70668V6.66001C5.14024 5.92668 4.54024 5.32668 3.80691 5.32668H3.24023V4.50001C3.24023 3.03334 4.44023 1.83334 5.9069 1.83334H12.0002C13.4669 1.83334 14.6669 3.03334 14.6669 4.50001Z" stroke="#666666" stroke-linecap="round" stroke-linejoin="round"/>
<path id="Vector_4" d="M5.13968 6.65999V9.70666C5.13968 10.44 4.53968 11.04 3.80635 11.04H2.66634C1.93301 11.04 1.33301 10.44 1.33301 9.70666V6.65999C1.33301 5.92666 1.93301 5.32666 2.66634 5.32666H3.80635C4.53968 5.32666 5.13968 5.92666 5.13968 6.65999Z" stroke="#666666" stroke-linecap="round" stroke-linejoin="round"/>
</g>
</svg>
