<svg width="21" height="20" viewBox="0 0 21 20" fill="none" xmlns="http://www.w3.org/2000/svg">
<g id="crown">
<path id="Vector" opacity="0.4" d="M14.475 15.8167H6.52496C6.17496 15.8167 5.85829 15.5917 5.74162 15.2667L2.27496 5.55835C1.99996 4.78335 2.88329 4.12501 3.54162 4.60001L6.87496 6.98335C7.31662 7.30001 7.94996 7.10835 8.14162 6.60001L9.71662 2.40001C9.98329 1.67501 11.0083 1.67501 11.275 2.40001L12.85 6.60001C13.0416 7.11668 13.6666 7.30001 14.1166 6.98335L17.45 4.60001C18.1166 4.12501 18.9916 4.79168 18.7166 5.55835L15.25 15.2667C15.1416 15.5917 14.825 15.8167 14.475 15.8167Z" fill="#B85042"/>
<path id="Vector_2" d="M14.6667 18.3333H6.33337C5.99171 18.3333 5.70837 18.05 5.70837 17.7083C5.70837 17.3666 5.99171 17.0833 6.33337 17.0833H14.6667C15.0084 17.0833 15.2917 17.3666 15.2917 17.7083C15.2917 18.05 15.0084 18.3333 14.6667 18.3333Z" fill="#B85042"/>
<path id="Vector_3" d="M12.5833 12.2917H8.41663C8.07496 12.2917 7.79163 12.0084 7.79163 11.6667C7.79163 11.325 8.07496 11.0417 8.41663 11.0417H12.5833C12.925 11.0417 13.2083 11.325 13.2083 11.6667C13.2083 12.0084 12.925 12.2917 12.5833 12.2917Z" fill="#B85042"/>
</g>
</svg>
