<svg width="16" height="16" viewBox="0 0 16 16" fill="none" xmlns="http://www.w3.org/2000/svg">
<path d="M11.0133 3.76667L8.94665 2.16667C8.67998 1.9 8.07998 1.76667 7.67998 1.76667H5.14665C4.34665 1.76667 3.47998 2.36667 3.27998 3.16667L1.67998 8.03334C1.34665 8.96667 1.94665 9.76667 2.94665 9.76667H5.61332C6.01332 9.76667 6.34665 10.1 6.27998 10.5667L5.94665 12.7C5.81332 13.3 6.21332 13.9667 6.81332 14.1667C7.34665 14.3667 8.01332 14.1 8.27998 13.7L11.0133 9.63334" stroke="#A8A8A8" stroke-miterlimit="10"/>
<path d="M14.4134 3.76667V10.3C14.4134 11.2333 14.0134 11.5667 13.0801 11.5667H12.4134C11.4801 11.5667 11.0801 11.2333 11.0801 10.3V3.76667C11.0801 2.83333 11.4801 2.5 12.4134 2.5H13.0801C14.0134 2.5 14.4134 2.83333 14.4134 3.76667Z" stroke="#A8A8A8" stroke-linecap="round" stroke-linejoin="round"/>
</svg>
