<svg width="37" height="37" viewBox="0 0 37 37" fill="none" xmlns="http://www.w3.org/2000/svg">
<g id="document-upload">
<path id="Vector" opacity="0.4" d="M31.25 15.785H26.915C23.36 15.785 20.465 12.89 20.465 9.335V5C20.465 4.175 19.79 3.5 18.965 3.5H12.605C7.985 3.5 4.25 6.5 4.25 11.855V25.145C4.25 30.5 7.985 33.5 12.605 33.5H24.395C29.015 33.5 32.75 30.5 32.75 25.145V17.285C32.75 16.46 32.075 15.785 31.25 15.785Z" fill="#64B667"/>
<path id="Vector_2" d="M24.2 3.81499C23.585 3.19999 22.52 3.61999 22.52 4.47499V9.70999C22.52 11.9 24.38 13.715 26.645 13.715C28.07 13.73 30.05 13.73 31.745 13.73C32.6 13.73 33.05 12.725 32.45 12.125C30.29 9.94999 26.42 6.03499 24.2 3.81499Z" fill="#64B667"/>
<path id="Vector_3" d="M17.7952 19.205L14.7952 16.205C14.7802 16.19 14.7652 16.19 14.7652 16.175C14.6752 16.085 14.5552 16.01 14.4352 15.95C14.4202 15.95 14.4202 15.95 14.4052 15.95C14.2852 15.905 14.1652 15.89 14.0452 15.875C14.0002 15.875 13.9702 15.875 13.9252 15.875C13.8352 15.875 13.7302 15.905 13.6402 15.935C13.5952 15.95 13.5652 15.965 13.5352 15.98C13.4152 16.04 13.2952 16.1 13.2052 16.205L10.2052 19.205C9.77016 19.64 9.77016 20.36 10.2052 20.795C10.6402 21.23 11.3602 21.23 11.7952 20.795L12.8752 19.715V26C12.8752 26.615 13.3852 27.125 14.0002 27.125C14.6152 27.125 15.1252 26.615 15.1252 26V19.715L16.2052 20.795C16.4302 21.02 16.7152 21.125 17.0002 21.125C17.2852 21.125 17.5702 21.02 17.7952 20.795C18.2302 20.36 18.2302 19.64 17.7952 19.205Z" fill="#64B667"/>
</g>
</svg>
