<svg width="24" height="25" viewBox="0 0 24 25" fill="none" xmlns="http://www.w3.org/2000/svg">
<g id="document-text">
<path id="Vector" opacity="0.4" d="M20.5 10.2062H17.61C15.24 10.2062 13.31 8.27624 13.31 5.90624V3.01624C13.31 2.46624 12.86 2.01624 12.31 2.01624H8.07C4.99 2.01624 2.5 4.01624 2.5 7.58624V16.4462C2.5 20.0162 4.99 22.0162 8.07 22.0162H15.93C19.01 22.0162 21.5 20.0162 21.5 16.4462V11.2062C21.5 10.6562 21.05 10.2062 20.5 10.2062Z" fill="black"/>
<path id="Vector_2" d="M15.8001 2.22623C15.3901 1.81623 14.6801 2.09623 14.6801 2.66623V6.15623C14.6801 7.61623 15.9201 8.82623 17.4301 8.82623C18.3801 8.83623 19.7001 8.83623 20.8301 8.83623C21.4001 8.83623 21.7001 8.16623 21.3001 7.76623C19.8601 6.31623 17.2801 3.70623 15.8001 2.22623Z" fill="black"/>
<path id="Vector_3" d="M13.5 13.7662H7.5C7.09 13.7662 6.75 13.4262 6.75 13.0162C6.75 12.6062 7.09 12.2662 7.5 12.2662H13.5C13.91 12.2662 14.25 12.6062 14.25 13.0162C14.25 13.4262 13.91 13.7662 13.5 13.7662Z" fill="black"/>
<path id="Vector_4" d="M11.5 17.7662H7.5C7.09 17.7662 6.75 17.4262 6.75 17.0162C6.75 16.6062 7.09 16.2662 7.5 16.2662H11.5C11.91 16.2662 12.25 16.6062 12.25 17.0162C12.25 17.4262 11.91 17.7662 11.5 17.7662Z" fill="black"/>
</g>
</svg>
