<svg xmlns="http://www.w3.org/2000/svg" width="18" height="18" viewBox="0 0 18 18" fill="none">
  <g clip-path="url(#clip0_559_6796)">
    <path d="M6.51727 15.1876H3.375C3.22582 15.1876 3.08274 15.1283 2.97725 15.0228C2.87176 14.9173 2.8125 14.7743 2.8125 14.6251V11.4828C2.81257 11.3338 2.87174 11.191 2.97703 11.0856L11.648 2.41462C11.7534 2.30921 11.8965 2.25 12.0456 2.25C12.1947 2.25 12.3377 2.30921 12.4432 2.41462L15.5855 5.55478C15.6909 5.66026 15.7501 5.80327 15.7501 5.9524C15.7501 6.10152 15.6909 6.24453 15.5855 6.35001L6.91453 15.0231C6.80912 15.1284 6.66625 15.1875 6.51727 15.1876Z" stroke="#64B667" stroke-width="1.25" stroke-linecap="round" stroke-linejoin="round"/>
    <path d="M9.5625 4.5L13.5 8.4375" stroke="#64B667" stroke-width="1.25" stroke-linecap="round" stroke-linejoin="round"/>
  </g>
  <defs>
    <clipPath id="clip0_559_6796">
      <rect width="18" height="18" fill="white"/>
    </clipPath>
  </defs>
</svg>