<svg width="18" height="19" viewBox="0 0 18 19" fill="none" xmlns="http://www.w3.org/2000/svg">
<g id="Google_Pay_Logo 1" clip-path="url(#clip0_195_6136)">
<path id="Vector" d="M17.931 9.63331C17.931 9.03331 17.8617 8.43331 17.7925 7.83331H9.13867V11.2333H14.0541C13.8464 12.3 13.2233 13.3 12.2541 13.9V16.1H15.231C16.9617 14.5666 17.931 12.3 17.931 9.63331Z" fill="#4285F4"/>
<path id="Vector_2" d="M9.13847 18.2333C11.6308 18.2333 13.7077 17.4333 15.2308 16.1L12.2539 13.9C11.4231 14.4333 10.3846 14.7666 9.13847 14.7666C6.78462 14.7666 4.7077 13.2333 4.01539 11.1H0.969238V13.3666C2.56155 16.3666 5.67693 18.2333 9.13847 18.2333Z" fill="#34A853"/>
<path id="Vector_3" d="M4.0156 11.1C3.60022 10.0333 3.60022 8.83335 4.0156 7.70002V5.43335H0.969449C-0.345936 7.90002 -0.345936 10.8333 0.969449 13.3667L4.0156 11.1Z" fill="#FBBC04"/>
<path id="Vector_4" d="M9.13857 4.10001C10.454 4.10001 11.7001 4.56668 12.6693 5.43335L15.3001 2.90001C13.6386 1.43335 11.4232 0.566681 9.20781 0.633348C5.74627 0.633348 2.56165 2.50001 1.03857 5.50001L4.08473 7.76668C4.70781 5.63335 6.78473 4.10001 9.13857 4.10001Z" fill="#EA4335"/>
</g>
<defs>
<clipPath id="clip0_195_6136">
<rect width="18" height="18" fill="white" transform="translate(0 0.5)"/>
</clipPath>
</defs>
</svg>
