<svg width="16" height="16" viewBox="0 0 16 16" fill="none" xmlns="http://www.w3.org/2000/svg">
<g id="eye-slash">
<path id="Vector" d="M9.68667 6.31334L6.31333 9.68668C5.88 9.25334 5.61333 8.66001 5.61333 8.00001C5.61333 6.68001 6.68 5.61334 8 5.61334C8.66 5.61334 9.25333 5.88001 9.68667 6.31334Z" stroke="#888888" stroke-linecap="round" stroke-linejoin="round"/>
<path id="Vector_2" d="M11.88 3.84666C10.7133 2.96666 9.38 2.48666 8 2.48666C5.64667 2.48666 3.45333 3.87333 1.92667 6.27333C1.32667 7.21333 1.32667 8.79333 1.92667 9.73333C2.45333 10.56 3.06667 11.2733 3.73333 11.8467" stroke="#888888" stroke-linecap="round" stroke-linejoin="round"/>
<path id="Vector_3" d="M5.61333 13.02C6.37333 13.34 7.18 13.5133 8 13.5133C10.3533 13.5133 12.5467 12.1267 14.0733 9.72665C14.6733 8.78665 14.6733 7.20665 14.0733 6.26665C13.8533 5.91998 13.6133 5.59332 13.3667 5.28665" stroke="#888888" stroke-linecap="round" stroke-linejoin="round"/>
<path id="Vector_4" d="M10.34 8.46667C10.1667 9.40668 9.4 10.1733 8.46 10.3467" stroke="#888888" stroke-width="1.5" stroke-linecap="round" stroke-linejoin="round"/>
<path id="Vector_5" d="M6.31333 9.68668L1.33333 14.6667" stroke="#888888" stroke-width="1.5" stroke-linecap="round" stroke-linejoin="round"/>
<path id="Vector_6" d="M14.6667 1.33334L9.68667 6.31334" stroke="#888888" stroke-width="1.5" stroke-linecap="round" stroke-linejoin="round"/>
</g>
</svg>
