<svg width="32" height="32" viewBox="0 0 32 32" fill="none" xmlns="http://www.w3.org/2000/svg">
<g id="vuesax/bulk/buliding">
<g id="buliding">
<path id="Vector" d="M29.3337 28.3334H2.66699C2.12033 28.3334 1.66699 28.7867 1.66699 29.3334C1.66699 29.88 2.12033 30.3334 2.66699 30.3334H29.3337C29.8803 30.3334 30.3337 29.88 30.3337 29.3334C30.3337 28.7867 29.8803 28.3334 29.3337 28.3334Z" fill="#5A42B8"/>
<path id="Vector_2" opacity="0.4" d="M22.6667 2.66663H9.33333C5.33333 2.66663 4 5.05329 4 7.99996V29.3333H28V7.99996C28 5.05329 26.6667 2.66663 22.6667 2.66663Z" fill="#5A42B8"/>
<g id="Group">
<path id="Vector_3" d="M13.333 23H9.33301C8.78634 23 8.33301 22.5467 8.33301 22C8.33301 21.4533 8.78634 21 9.33301 21H13.333C13.8797 21 14.333 21.4533 14.333 22C14.333 22.5467 13.8797 23 13.333 23Z" fill="#5A42B8"/>
</g>
<g id="Group_2">
<path id="Vector_4" d="M22.667 23H18.667C18.1203 23 17.667 22.5467 17.667 22C17.667 21.4533 18.1203 21 18.667 21H22.667C23.2137 21 23.667 21.4533 23.667 22C23.667 22.5467 23.2137 23 22.667 23Z" fill="#5A42B8"/>
</g>
<g id="Group_3">
<path id="Vector_5" d="M13.333 17H9.33301C8.78634 17 8.33301 16.5467 8.33301 16C8.33301 15.4533 8.78634 15 9.33301 15H13.333C13.8797 15 14.333 15.4533 14.333 16C14.333 16.5467 13.8797 17 13.333 17Z" fill="#5A42B8"/>
</g>
<g id="Group_4">
<path id="Vector_6" d="M22.667 17H18.667C18.1203 17 17.667 16.5467 17.667 16C17.667 15.4533 18.1203 15 18.667 15H22.667C23.2137 15 23.667 15.4533 23.667 16C23.667 16.5467 23.2137 17 22.667 17Z" fill="#5A42B8"/>
</g>
<g id="Group_5">
<path id="Vector_7" d="M13.333 11H9.33301C8.78634 11 8.33301 10.5467 8.33301 10C8.33301 9.45333 8.78634 9 9.33301 9H13.333C13.8797 9 14.333 9.45333 14.333 10C14.333 10.5467 13.8797 11 13.333 11Z" fill="#5A42B8"/>
</g>
<g id="Group_6">
<path id="Vector_8" d="M22.667 11H18.667C18.1203 11 17.667 10.5467 17.667 10C17.667 9.45333 18.1203 9 18.667 9H22.667C23.2137 9 23.667 9.45333 23.667 10C23.667 10.5467 23.2137 11 22.667 11Z" fill="#5A42B8"/>
</g>
</g>
</g>
</svg>
