<svg width="75" height="34" viewBox="0 0 75 34" fill="none" xmlns="http://www.w3.org/2000/svg">
<path fill-rule="evenodd" clip-rule="evenodd" d="M0.5 0V20.244H4.57424H5.63584H14.3868V15.8469H5.63584V0H0.5ZM14.7829 20.244L22.6732 0H27.6369L35.441 20.244H30.0757L28.8519 16.7034H21.2871L20.0335 20.244H14.7829ZM25.1151 5.89187L27.4506 12.6489H22.7227L25.1151 5.89187ZM42.4813 12.0493V20.244H37.3454V0H41.4197H42.4813H46.0103C47.3876 0 48.5926 0.256976 49.6255 0.770928C50.6776 1.28488 51.5 1.98919 52.093 2.88384C52.686 3.7785 52.9825 4.82544 52.9825 6.02466C52.9825 7.22388 52.6764 8.28034 52.0643 9.19403C51.4714 10.0887 50.6393 10.793 49.5681 11.3069C49.1048 11.521 48.6074 11.6888 48.076 11.8103L54.001 19.8359L61.7321 0H66.6958L74.5 20.244H69.1346L67.9109 16.7034H60.3461L59.0925 20.244H54.3023H53.8419H48.3631L42.7831 12.0493H42.4813ZM42.4813 8.39455H45.2931C46.1347 8.39455 46.7755 8.19468 47.2154 7.79494C47.6745 7.37616 47.904 6.81462 47.904 6.11032C47.904 5.42505 47.6745 4.87303 47.2154 4.45425C46.7755 4.01644 46.1347 3.79754 45.2931 3.79754H42.4813V8.39455ZM61.7816 12.6489H66.5095L64.1741 5.89188L61.7816 12.6489Z" fill="#4AA064"/>
<path fill-rule="evenodd" clip-rule="evenodd" d="M65.6309 32.3544C65.3118 32.3544 65.0275 32.288 64.778 32.1552C64.613 32.0636 64.4709 31.9505 64.3515 31.8159V32.2678H63.3942V26.0319H64.3515V28.5732C64.4726 28.4356 64.6177 28.3217 64.7867 28.2318C65.0362 28.0932 65.3176 28.0239 65.6309 28.0239C66.008 28.0239 66.3475 28.1221 66.6492 28.3184C66.9567 28.5089 67.1975 28.7688 67.3715 29.0979C67.5514 29.4212 67.6413 29.7879 67.6413 30.1978C67.6413 30.602 67.5514 30.9687 67.3715 31.2978C67.1975 31.6211 66.9567 31.8781 66.6492 32.0686C66.3475 32.2591 66.008 32.3544 65.6309 32.3544ZM65.4743 31.4537C65.7063 31.4537 65.9094 31.4017 66.0835 31.2978C66.2633 31.1881 66.4026 31.0379 66.5012 30.8474C66.6057 30.6569 66.6579 30.4374 66.6579 30.1892C66.6579 29.9409 66.6057 29.7215 66.5012 29.5309C66.4026 29.3404 66.2633 29.1931 66.0835 29.0892C65.9094 28.9795 65.7063 28.9246 65.4743 28.9246C65.2422 28.9246 65.0362 28.9795 64.8563 29.0892C64.6765 29.1931 64.5372 29.3404 64.4386 29.5309C64.3399 29.7215 64.2906 29.9409 64.2906 30.1892C64.2906 30.4374 64.3399 30.6569 64.4386 30.8474C64.5372 31.0379 64.6765 31.1881 64.8563 31.2978C65.0362 31.4017 65.2422 31.4537 65.4743 31.4537ZM68.4427 26.0319V32.2678H69.4001V26.0319H68.4427ZM71.2749 32.0773C71.6114 32.262 71.9886 32.3544 72.4063 32.3544C72.7312 32.3544 73.0387 32.2938 73.3288 32.1725C73.619 32.0513 73.8655 31.8723 74.0686 31.6356L73.4594 31.0206C73.3317 31.165 73.1751 31.2747 72.9894 31.3497C72.8096 31.4248 72.6123 31.4623 72.3976 31.4623C72.1481 31.4623 71.9276 31.4104 71.7362 31.3064C71.5447 31.1967 71.3967 31.0437 71.2923 30.8474C71.2424 30.7536 71.2044 30.6526 71.1784 30.5443H74.2949C74.3123 30.4577 74.3239 30.3797 74.3297 30.3104C74.3413 30.2354 74.3471 30.1632 74.3471 30.0939C74.3471 29.6955 74.2601 29.3404 74.086 29.0286C73.9178 28.7168 73.6828 28.4714 73.3811 28.2924C73.0852 28.1134 72.7428 28.0239 72.3541 28.0239C71.9537 28.0239 71.5882 28.1192 71.2575 28.3097C70.9326 28.5003 70.6744 28.7601 70.4829 29.0892C70.2914 29.4126 70.1957 29.7792 70.1957 30.1892C70.1957 30.5991 70.2914 30.9687 70.4829 31.2978C70.6802 31.6269 70.9442 31.8867 71.2749 32.0773ZM71.1813 29.7648C71.2057 29.6679 71.2398 29.5784 71.2836 29.4963C71.3822 29.3057 71.5215 29.1585 71.7014 29.0546C71.8812 28.9506 72.093 28.8987 72.3367 28.8987C72.5688 28.8987 72.7631 28.9449 72.9198 29.0372C73.0823 29.1296 73.207 29.2624 73.294 29.4357C73.3428 29.5327 73.3797 29.6424 73.4048 29.7648H71.1813ZM59.9435 28.1105V32.2678H60.9008V29.9553C60.9008 29.5973 60.9879 29.3346 61.1619 29.1672C61.336 28.9997 61.5565 28.916 61.8234 28.916C61.9452 28.916 62.0526 28.9333 62.1454 28.968C62.2382 29.0026 62.3224 29.0603 62.3978 29.1412L63.0244 28.5003C62.8794 28.3328 62.7227 28.2116 62.5544 28.1365C62.3862 28.0614 62.1976 28.0239 61.9887 28.0239C61.513 28.0239 61.1561 28.1885 60.9182 28.5176L60.9008 28.5423V28.1105H59.9435ZM56.6443 32.3544C56.2672 32.3544 55.9248 32.2592 55.6173 32.0686C55.3156 31.8781 55.0748 31.6211 54.895 31.2978C54.7209 30.9687 54.6339 30.602 54.6339 30.1978C54.6339 29.7879 54.7209 29.4212 54.895 29.0979C55.0748 28.7688 55.3156 28.5089 55.6173 28.3184C55.9248 28.1221 56.2672 28.0239 56.6443 28.0239C56.9634 28.0239 57.2448 28.0932 57.4885 28.2318C57.6575 28.3217 57.8026 28.4356 57.9237 28.5732V28.1105H58.881V32.2678H57.9237V31.8115C57.8061 31.948 57.664 32.0626 57.4972 32.1552C57.2477 32.288 56.9634 32.3544 56.6443 32.3544ZM56.801 31.4537C57.1549 31.4537 57.4392 31.3353 57.6539 31.0986C57.8743 30.8618 57.9846 30.5587 57.9846 30.1892C57.9846 29.9409 57.9353 29.7215 57.8366 29.5309C57.738 29.3404 57.5987 29.1931 57.4189 29.0892C57.2448 28.9795 57.0388 28.9247 56.801 28.9247C56.5689 28.9247 56.3629 28.9795 56.183 29.0892C56.009 29.1931 55.8697 29.3404 55.7653 29.5309C55.6666 29.7215 55.6173 29.9409 55.6173 30.1892C55.6173 30.4374 55.6666 30.6569 55.7653 30.8474C55.8697 31.0379 56.009 31.1881 56.183 31.2978C56.3629 31.4017 56.5689 31.4537 56.801 31.4537ZM47.6992 26.2051V32.2678H48.7001V28.3853L50.3537 31.0899H51.0499L52.7035 28.3853V32.2678H53.7044V26.2051H53.0082L50.7018 29.983L48.3955 26.2051H47.6992Z" fill="#4AA064"/>
<path fill-rule="evenodd" clip-rule="evenodd" d="M30.3493 32.0686C30.6568 32.2591 30.9992 32.3544 31.3763 32.3544C31.6954 32.3544 31.9797 32.288 32.2292 32.1552C32.396 32.0626 32.5381 31.948 32.6557 31.8115V32.2678H33.613V26.0319H32.6557V28.5732C32.5346 28.4355 32.3895 28.3217 32.2205 28.2318C31.9768 28.0932 31.6954 28.0239 31.3763 28.0239C30.9992 28.0239 30.6568 28.1221 30.3493 28.3184C30.0476 28.5089 29.8068 28.7688 29.627 29.0979C29.4529 29.4212 29.3659 29.7879 29.3659 30.1978C29.3659 30.602 29.4529 30.9687 29.627 31.2978C29.8068 31.6211 30.0476 31.8781 30.3493 32.0686ZM32.1509 31.2978C31.9768 31.4017 31.7708 31.4537 31.533 31.4537C31.3009 31.4537 31.0949 31.4017 30.915 31.2978C30.741 31.1881 30.6017 31.0379 30.4973 30.8474C30.3986 30.6569 30.3493 30.4374 30.3493 30.1892C30.3493 29.9409 30.3986 29.7215 30.4973 29.5309C30.6017 29.3404 30.741 29.1931 30.915 29.0892C31.0949 28.9795 31.3009 28.9246 31.533 28.9246C31.7708 28.9246 31.9768 28.9795 32.1509 29.0892C32.3307 29.1931 32.47 29.3404 32.5686 29.5309C32.6673 29.7215 32.7166 29.9409 32.7166 30.1892C32.7166 30.4374 32.6673 30.6569 32.5686 30.8474C32.47 31.0379 32.3307 31.1881 32.1509 31.2978ZM38.6545 32.3544C38.3354 32.3544 38.0511 32.288 37.8016 32.1552C37.6366 32.0636 37.4945 31.9505 37.3751 31.8159V32.2678H36.4178V26.0319H37.3751V28.5732C37.4962 28.4355 37.6413 28.3217 37.8103 28.2318C38.0598 28.0932 38.3412 28.0239 38.6545 28.0239C39.0316 28.0239 39.3711 28.1221 39.6728 28.3184C39.9803 28.5089 40.2211 28.7688 40.3951 29.0979C40.575 29.4212 40.6649 29.7879 40.6649 30.1978C40.6649 30.602 40.575 30.9687 40.3951 31.2978C40.2211 31.6211 39.9803 31.8781 39.6728 32.0686C39.3711 32.2591 39.0316 32.3544 38.6545 32.3544ZM38.4978 31.4537C38.7299 31.4537 38.933 31.4017 39.1071 31.2978C39.2869 31.1881 39.4262 31.0379 39.5248 30.8474C39.6293 30.6569 39.6815 30.4374 39.6815 30.1892C39.6815 29.9409 39.6293 29.7215 39.5248 29.5309C39.4262 29.3404 39.2869 29.1931 39.1071 29.0892C38.933 28.9795 38.7299 28.9246 38.4978 28.9246C38.2658 28.9246 38.0598 28.9795 37.8799 29.0892C37.7001 29.1931 37.5608 29.3404 37.4622 29.5309C37.3635 29.7215 37.3142 29.9409 37.3142 30.1892C37.3142 30.4374 37.3635 30.6569 37.4622 30.8474C37.5608 31.0379 37.7001 31.1881 37.8799 31.2978C38.0598 31.4017 38.2658 31.4537 38.4978 31.4537ZM42.4881 34L43.2627 32.3111L45.2035 28.1105H44.1417L43.0101 30.8191L41.9398 28.1105H40.8867L42.4749 31.8499L41.4263 34H42.4881ZM26.9187 32.3544C26.501 32.3544 26.1238 32.262 25.7873 32.0773C25.4566 31.8867 25.1926 31.6269 24.9953 31.2978C24.8038 30.9687 24.7081 30.5991 24.7081 30.1892C24.7081 29.7792 24.8038 29.4126 24.9953 29.0892C25.1868 28.7601 25.445 28.5003 25.7699 28.3097C26.1006 28.1192 26.4661 28.0239 26.8665 28.0239C27.2552 28.0239 27.5976 28.1134 27.8935 28.2924C28.1952 28.4714 28.4302 28.7168 28.5984 29.0286C28.7725 29.3404 28.8595 29.6955 28.8595 30.0939C28.8595 30.1632 28.8537 30.2354 28.8421 30.3104C28.8363 30.3797 28.8247 30.4577 28.8073 30.5443H25.6908C25.7168 30.6526 25.7548 30.7536 25.8047 30.8474C25.9091 31.0437 26.0571 31.1967 26.2486 31.3064C26.44 31.4104 26.6605 31.4623 26.91 31.4623C27.1247 31.4623 27.322 31.4248 27.5018 31.3497C27.6875 31.2747 27.8441 31.165 27.9718 31.0206L28.581 31.6356C28.3779 31.8723 28.1314 32.0513 27.8412 32.1725C27.5511 32.2938 27.2436 32.3544 26.9187 32.3544ZM25.796 29.4963C25.7522 29.5784 25.7181 29.6679 25.6937 29.7648H27.9172C27.8921 29.6424 27.8552 29.5327 27.8064 29.4357C27.7194 29.2624 27.5947 29.1296 27.4322 29.0372C27.2755 28.9449 27.0812 28.8987 26.8491 28.8987C26.6054 28.8987 26.3936 28.9506 26.2138 29.0546C26.0339 29.1585 25.8946 29.3057 25.796 29.4963ZM21.5612 28.1105V32.2678H22.5185V29.9553C22.5185 29.5973 22.6056 29.3346 22.7796 29.1672C22.9537 28.9997 23.1742 28.916 23.4411 28.916C23.5629 28.916 23.6703 28.9333 23.7631 28.968C23.8559 29.0026 23.9401 29.0603 24.0155 29.1412L24.6421 28.5003C24.4971 28.3328 24.3404 28.2116 24.1721 28.1365C24.0039 28.0614 23.8153 28.0239 23.6064 28.0239C23.1307 28.0239 22.7738 28.1885 22.5359 28.5176L22.5185 28.5423V28.1105H21.5612ZM18.8529 32.3544C18.4352 32.3544 18.0581 32.262 17.7215 32.0773C17.3908 31.8867 17.1268 31.6269 16.9295 31.2978C16.7381 30.9687 16.6423 30.5991 16.6423 30.1892C16.6423 29.7792 16.7381 29.4126 16.9295 29.0892C17.121 28.7601 17.3792 28.5003 17.7041 28.3097C18.0348 28.1192 18.4004 28.0239 18.8007 28.0239C19.1895 28.0239 19.5318 28.1134 19.8277 28.2924C20.1294 28.4714 20.3644 28.7168 20.5327 29.0286C20.7067 29.3404 20.7938 29.6955 20.7938 30.0939C20.7938 30.1632 20.7879 30.2354 20.7763 30.3104C20.7705 30.3797 20.7589 30.4577 20.7415 30.5443H17.625C17.6511 30.6526 17.689 30.7536 17.7389 30.8474C17.8434 31.0437 17.9913 31.1967 18.1828 31.3064C18.3743 31.4104 18.5947 31.4623 18.8442 31.4623C19.0589 31.4623 19.2562 31.4248 19.4361 31.3497C19.6217 31.2747 19.7784 31.165 19.906 31.0206L20.5152 31.6356C20.3122 31.8723 20.0656 32.0513 19.7755 32.1725C19.4854 32.2938 19.1779 32.3544 18.8529 32.3544ZM17.628 29.7648H19.8514C19.8263 29.6424 19.7894 29.5327 19.7407 29.4357C19.6536 29.2624 19.5289 29.1296 19.3664 29.0372C19.2098 28.9449 19.0154 28.8987 18.7833 28.8987C18.5396 28.8987 18.3278 28.9506 18.148 29.0546C17.9681 29.1585 17.8289 29.3057 17.7302 29.4963C17.6864 29.5784 17.6523 29.6679 17.628 29.7648ZM9.99147 28.1105L11.6712 32.2678H12.2282L13.2029 29.7905L14.1777 32.2678H14.7347L16.4144 28.1105H15.4223L14.4391 30.737L13.4814 28.1105H12.9244L11.9668 30.737L10.9836 28.1105H9.99147ZM7.56541 32.3544C7.15926 32.3544 6.79082 32.2592 6.4601 32.0686C6.12938 31.8723 5.86539 31.6096 5.66811 31.2805C5.47664 30.9513 5.38091 30.5847 5.38091 30.1805C5.38091 29.7763 5.47664 29.4126 5.66811 29.0892C5.86539 28.7659 6.12938 28.5089 6.4601 28.3184C6.79082 28.1221 7.15926 28.0239 7.56541 28.0239C7.97736 28.0239 8.34869 28.1192 8.67941 28.3097C9.01013 28.5003 9.27123 28.7601 9.4627 29.0892C9.65997 29.4126 9.75861 29.7763 9.75861 30.1805C9.75861 30.5847 9.65997 30.9513 9.4627 31.2805C9.27123 31.6096 9.01013 31.8723 8.67941 32.0686C8.34869 32.2592 7.97736 32.3544 7.56541 32.3544ZM7.56541 31.4364C7.80329 31.4364 8.01217 31.3844 8.19204 31.2805C8.3777 31.1707 8.51986 31.0206 8.61849 30.8301C8.72293 30.6395 8.77515 30.423 8.77515 30.1805C8.77515 29.938 8.72293 29.7244 8.61849 29.5396C8.51405 29.3548 8.3719 29.2105 8.19204 29.1065C8.01217 28.9968 7.80329 28.942 7.56541 28.942C7.33332 28.942 7.12445 28.9968 6.93878 29.1065C6.75891 29.2105 6.61676 29.3548 6.51232 29.5396C6.41369 29.7244 6.36437 29.938 6.36437 30.1805C6.36437 30.423 6.41369 30.6395 6.51232 30.8301C6.61676 31.0206 6.75891 31.1707 6.93878 31.2805C7.12445 31.3844 7.33332 31.4364 7.56541 31.4364ZM1.74208 29.9813V32.2678H0.741211V26.2051H1.42876H1.74208H3.00404C3.38698 26.2051 3.7293 26.283 4.03101 26.4389C4.33853 26.5948 4.57932 26.8142 4.75338 27.0972C4.93324 27.3801 5.02318 27.7121 5.02318 28.0932C5.02318 28.4743 4.93324 28.8063 4.75338 29.0892C4.57932 29.3721 4.33853 29.5915 4.03101 29.7474C3.7293 29.9033 3.38698 29.9813 3.00404 29.9813H1.74208ZM1.74208 29.1152H2.95182C3.1607 29.1152 3.34346 29.0748 3.50012 28.9939C3.66258 28.9073 3.79023 28.789 3.88306 28.6388C3.97589 28.4829 4.02231 28.3011 4.02231 28.0932C4.02231 27.8853 3.97589 27.7063 3.88306 27.5562C3.79023 27.4003 3.66258 27.2819 3.50012 27.2011C3.34346 27.1145 3.1607 27.0712 2.95182 27.0712H1.74208V29.1152Z" fill="black"/>
</svg>
