<svg width="16" height="16" viewBox="0 0 16 16" fill="none" xmlns="http://www.w3.org/2000/svg">
<path d="M4.98657 12.2333L7.05324 13.8333C7.31991 14.1 7.91991 14.2333 8.31991 14.2333H10.8532C11.6532 14.2333 12.5199 13.6333 12.7199 12.8333L14.3199 7.96667C14.6532 7.03333 14.0532 6.23333 13.0532 6.23333H10.3866C9.98657 6.23333 9.65324 5.9 9.71991 5.43333L10.0532 3.3C10.1866 2.7 9.78657 2.03333 9.18657 1.83333C8.65324 1.63333 7.98657 1.9 7.71991 2.3L4.98657 6.36667" fill="#B7FAC9"/>
<path d="M4.98657 12.2333L7.05324 13.8333C7.31991 14.1 7.91991 14.2333 8.31991 14.2333H10.8532C11.6532 14.2333 12.5199 13.6333 12.7199 12.8333L14.3199 7.96667C14.6532 7.03333 14.0532 6.23333 13.0532 6.23333H10.3866C9.98657 6.23333 9.65324 5.9 9.71991 5.43333L10.0532 3.3C10.1866 2.7 9.78657 2.03333 9.18657 1.83333C8.65324 1.63333 7.98657 1.9 7.71991 2.3L4.98657 6.36667" stroke="#34A853" stroke-miterlimit="10"/>
<path d="M1.58667 12.2333V5.7C1.58667 4.76667 1.98667 4.43333 2.92 4.43333H3.58667C4.52 4.43333 4.92 4.76667 4.92 5.7V12.2333C4.92 13.1667 4.52 13.5 3.58667 13.5H2.92C1.98667 13.5 1.58667 13.1667 1.58667 12.2333Z" fill="#B7FAC9" stroke="#34A853" stroke-linecap="round" stroke-linejoin="round"/>
</svg>
