<svg width="18" height="18" viewBox="0 0 18 18" fill="none" xmlns="http://www.w3.org/2000/svg">
<g clip-path="url(#clip0_351_44337)">
<path d="M10.2599 6.24004C10.9574 6.93754 10.9574 8.06254 10.2599 8.76004C9.56242 9.45754 8.43742 9.45754 7.73992 8.76004C7.04242 8.06254 7.04242 6.93754 7.73992 6.24004C8.43742 5.54254 9.56992 5.54254 10.2599 6.24004Z" stroke="#888888" stroke-width="1.5" stroke-linecap="round" stroke-linejoin="round"/>
<path d="M14.835 7.27499C14.835 8.85749 14.13 10.365 12.915 11.3775L11.0025 12.975C10.2375 13.6125 9.66754 14.445 9.35254 15.39L9.00004 16.4475L8.64754 15.39C8.33254 14.445 7.76254 13.6125 6.99754 12.975L5.08504 11.3775C3.87004 10.365 3.16504 8.85749 3.16504 7.27499V7.30499C3.16504 3.65999 6.18004 1.55249 9.00004 1.55249C11.82 1.55249 14.835 3.66749 14.835 7.30499" stroke="#888888" stroke-width="1.5" stroke-linecap="round" stroke-linejoin="round"/>
</g>
<defs>
<clipPath id="clip0_351_44337">
<rect width="18" height="18" fill="white"/>
</clipPath>
</defs>
</svg>
