<svg xmlns="http://www.w3.org/2000/svg" width="24" height="24" viewBox="0 0 24 24" fill="none">
<rect width="24" height="24" rx="4" fill="#4AA064"/>
<path fill-rule="evenodd" clip-rule="evenodd" d="M6.76355 14.3089L8.6446 9.51355H9.82795L11.6885 14.3089H10.4094L10.1176 13.4702H8.31416L8.01531 14.3089H6.76355ZM9.22676 10.9092L9.78354 12.5098H8.6564L9.22676 10.9092ZM13.3666 12.3678V14.3089H12.1422V9.51355H13.1135H13.3666H14.208C14.5363 9.51355 14.8236 9.57442 15.0698 9.69617C15.3206 9.81791 15.5167 9.98474 15.6581 10.1967C15.7995 10.4086 15.8701 10.6566 15.8701 10.9407C15.8701 11.2247 15.7972 11.475 15.6513 11.6914C15.5099 11.9033 15.3115 12.0702 15.0562 12.1919C14.9457 12.2426 14.8271 12.2824 14.7004 12.3112L16.1133 14.2126L17.9565 9.51355H19.1399L21.0004 14.3089H19.7213L19.4296 13.4702H17.6261L17.3272 14.3089H16.1848H16.0755H14.7689L13.4386 12.3678H13.3666ZM13.3666 11.502H14.037C14.2376 11.502 14.3904 11.4547 14.4953 11.36C14.6047 11.2608 14.6594 11.1278 14.6594 10.9609C14.6594 10.7986 14.6047 10.6679 14.4953 10.5687C14.3904 10.465 14.2376 10.4131 14.037 10.4131H13.3666V11.502ZM17.9683 12.5098H19.0955L18.5387 10.9092L17.9683 12.5098ZM3.3584 9.51408V14.3094H4.3297H4.58279H6.66905V13.2678H4.58279V9.51408H3.3584Z" fill="white"/>
</svg>