<svg width="89" height="40" viewBox="0 0 89 40" fill="none" xmlns="http://www.w3.org/2000/svg">
<path fill-rule="evenodd" clip-rule="evenodd" d="M0 0V23.8165H4.9001H6.17688H16.7017V18.6434H6.17688V0H0ZM17.1781 23.8165L26.6678 0H32.6376L42.0237 23.8165H35.5708L34.099 19.6511H25.0007L23.493 23.8165H17.1781ZM29.6047 6.93162L32.4135 14.8811H26.7273L29.6047 6.93162ZM50.491 14.1757V23.8165H44.3141V0H49.2142H50.491H54.7354C56.3918 0 57.8411 0.302325 59.0834 0.906975C60.3487 1.51162 61.3379 2.34022 62.0511 3.39276C62.7642 4.44529 63.1208 5.67699 63.1208 7.08784C63.1208 8.49869 62.7527 9.74158 62.0165 10.8165C61.3034 11.869 60.3027 12.6976 59.0144 13.3023C58.4571 13.5542 57.8588 13.7516 57.2197 13.8945L64.3458 23.3363L73.6441 0H79.6139L89 23.8165H82.5471L81.0753 19.6511H71.977L70.4693 23.8165H64.7082H64.1544H57.5651L50.854 14.1757H50.491ZM50.491 9.87594H53.8727C54.885 9.87594 55.6556 9.6408 56.1847 9.17052C56.7369 8.67784 57.0129 8.01721 57.0129 7.18861C57.0129 6.38241 56.7369 5.73297 56.1847 5.2403C55.6556 4.72522 54.885 4.46769 53.8727 4.46769H50.491V9.87594ZM73.7036 14.8811H79.3898L76.581 6.93163L73.7036 14.8811Z" fill="#4AA064"/>
<path fill-rule="evenodd" clip-rule="evenodd" d="M78.3336 38.064C77.9498 38.064 77.6078 37.9859 77.3078 37.8297C77.1093 37.7219 76.9384 37.5888 76.7949 37.4305V37.9621H75.6434V30.6257H76.7949V33.6156C76.9405 33.4536 77.1149 33.3197 77.3182 33.2139C77.6183 33.0508 77.9567 32.9693 78.3336 32.9693C78.7871 32.9693 79.1954 33.0848 79.5582 33.3158C79.9281 33.5399 80.2177 33.8456 80.427 34.2328C80.6433 34.6132 80.7515 35.0446 80.7515 35.5269C80.7515 36.0024 80.6433 36.4337 80.427 36.8209C80.2177 37.2013 79.9281 37.5036 79.5582 37.7278C79.1954 37.952 78.7871 38.064 78.3336 38.064ZM78.1451 37.0043C78.4243 37.0043 78.6685 36.9432 78.8778 36.8209C79.0942 36.6919 79.2617 36.5152 79.3803 36.2911C79.5059 36.0669 79.5687 35.8088 79.5687 35.5167C79.5687 35.2246 79.5059 34.9664 79.3803 34.7423C79.2617 34.5181 79.0942 34.3449 78.8778 34.2226C78.6685 34.0935 78.4243 34.029 78.1451 34.029C77.866 34.029 77.6183 34.0935 77.402 34.2226C77.1856 34.3449 77.0182 34.5181 76.8995 34.7423C76.7809 34.9664 76.7216 35.2246 76.7216 35.5167C76.7216 35.8088 76.7809 36.0669 76.8995 36.2911C77.0182 36.5152 77.1856 36.6919 77.402 36.8209C77.6183 36.9432 77.866 37.0043 78.1451 37.0043ZM81.7153 30.6257V37.9621H82.8668V30.6257H81.7153ZM85.1216 37.738C85.5263 37.9554 85.9799 38.064 86.4823 38.064C86.8731 38.064 87.243 37.9927 87.5919 37.8501C87.9408 37.7074 88.2374 37.4968 88.4816 37.2183L87.7489 36.4949C87.5954 36.6647 87.407 36.7938 87.1836 36.8821C86.9673 36.9704 86.7301 37.0145 86.4719 37.0145C86.1718 37.0145 85.9066 36.9534 85.6764 36.8311C85.4461 36.7021 85.2681 36.522 85.1425 36.2911C85.0825 36.1807 85.0368 36.0619 85.0055 35.9344H88.7538C88.7747 35.8326 88.7886 35.7408 88.7956 35.6593C88.8096 35.571 88.8166 35.4861 88.8166 35.4046C88.8166 34.9359 88.7119 34.5181 88.5025 34.1513C88.3002 33.7845 88.0175 33.4958 87.6547 33.2852C87.2988 33.0746 86.8871 32.9693 86.4195 32.9693C85.938 32.9693 85.4984 33.0814 85.1007 33.3056C84.7099 33.5297 84.3993 33.8354 84.1691 34.2226C83.9388 34.603 83.8236 35.0344 83.8236 35.5167C83.8236 35.999 83.9388 36.4337 84.1691 36.8209C84.4063 37.2081 84.7238 37.5138 85.1216 37.738ZM85.0091 35.0174C85.0383 34.9034 85.0793 34.7981 85.132 34.7015C85.2507 34.4774 85.4182 34.3041 85.6345 34.1819C85.8508 34.0596 86.1055 33.9984 86.3986 33.9984C86.6777 33.9984 86.9115 34.0528 87.0999 34.1615C87.2953 34.2702 87.4453 34.4264 87.55 34.6302C87.6086 34.7443 87.653 34.8734 87.6832 35.0174H85.0091ZM71.4933 33.0712V37.9621H72.6447V35.2416C72.6447 34.8204 72.7494 34.5113 72.9587 34.3143C73.1681 34.1173 73.4332 34.0188 73.7542 34.0188C73.9008 34.0188 74.0299 34.0392 74.1415 34.08C74.2532 34.1207 74.3544 34.1887 74.4451 34.2838L75.1987 33.5297C75.0243 33.3327 74.8359 33.1901 74.6335 33.1018C74.4311 33.0135 74.2043 32.9693 73.9531 32.9693C73.3809 32.9693 72.9517 33.1629 72.6656 33.5501C72.6586 33.5597 72.6516 33.5694 72.6447 33.5792V33.0712H71.4933ZM67.5253 38.064C67.0717 38.064 66.66 37.952 66.2902 37.7278C65.9273 37.5036 65.6377 37.2013 65.4214 36.8209C65.2121 36.4337 65.1074 36.0024 65.1074 35.5269C65.1074 35.0446 65.2121 34.6132 65.4214 34.2328C65.6377 33.8456 65.9273 33.5399 66.2902 33.3158C66.66 33.0848 67.0717 32.9693 67.5253 32.9693C67.9091 32.9693 68.2476 33.0508 68.5407 33.2139C68.7439 33.3197 68.9184 33.4536 69.064 33.6156V33.0712H70.2154V37.9621H69.064V37.4253C68.9227 37.5859 68.7517 37.7207 68.5511 37.8297C68.2511 37.9859 67.9091 38.064 67.5253 38.064ZM67.7137 37.0043C68.1394 37.0043 68.4813 36.8651 68.7395 36.5866C69.0047 36.3081 69.1373 35.9514 69.1373 35.5167C69.1373 35.2246 69.078 34.9664 68.9594 34.7423C68.8407 34.5181 68.6732 34.3449 68.4569 34.2226C68.2476 34.0935 67.9999 34.029 67.7137 34.029C67.4346 34.029 67.1869 34.0935 66.9706 34.2226C66.7612 34.3449 66.5937 34.5181 66.4681 34.7423C66.3495 34.9664 66.2902 35.2246 66.2902 35.5167C66.2902 35.8088 66.3495 36.0669 66.4681 36.2911C66.5937 36.5152 66.7612 36.6919 66.9706 36.8209C67.1869 36.9432 67.4346 37.0043 67.7137 37.0043ZM56.7671 30.8295V37.9621H57.9708V33.3945L59.9596 36.5764H60.797L62.7858 33.3945V37.9621H63.9895V30.8295H63.1521L60.3783 35.2742L57.6044 30.8295H56.7671Z" fill="#4AA064"/>
<path fill-rule="evenodd" clip-rule="evenodd" d="M35.9002 37.7278C36.27 37.952 36.6818 38.064 37.1353 38.064C37.5191 38.064 37.8611 37.9859 38.1611 37.8297C38.3617 37.7207 38.5327 37.5859 38.674 37.4253V37.9621H39.8255V30.6257H38.674V33.6156C38.5284 33.4536 38.354 33.3197 38.1507 33.2139C37.8576 33.0508 37.5191 32.9693 37.1353 32.9693C36.6818 32.9693 36.27 33.0848 35.9002 33.3158C35.5373 33.5399 35.2477 33.8456 35.0314 34.2328C34.8221 34.6132 34.7174 35.0446 34.7174 35.5269C34.7174 36.0024 34.8221 36.4337 35.0314 36.8209C35.2477 37.2013 35.5373 37.5036 35.9002 37.7278ZM38.0669 36.8209C37.8576 36.9432 37.6099 37.0043 37.3238 37.0043C37.0446 37.0043 36.7969 36.9432 36.5806 36.8209C36.3712 36.6919 36.2038 36.5152 36.0781 36.2911C35.9595 36.0669 35.9002 35.8088 35.9002 35.5167C35.9002 35.2246 35.9595 34.9664 36.0781 34.7423C36.2038 34.5181 36.3712 34.3449 36.5806 34.2226C36.7969 34.0935 37.0446 34.029 37.3238 34.029C37.6099 34.029 37.8576 34.0935 38.0669 34.2226C38.2833 34.3449 38.4507 34.5181 38.5694 34.7423C38.688 34.9664 38.7473 35.2246 38.7473 35.5167C38.7473 35.8088 38.688 36.0669 38.5694 36.2911C38.4507 36.5152 38.2833 36.6919 38.0669 36.8209ZM45.8889 38.064C45.5051 38.064 45.1631 37.9859 44.8631 37.8297C44.6646 37.7219 44.4937 37.5888 44.3502 37.4305V37.9621H43.1987V30.6257H44.3502V33.6156C44.4958 33.4536 44.6702 33.3197 44.8735 33.2139C45.1736 33.0508 45.512 32.9693 45.8889 32.9693C46.3424 32.9693 46.7507 33.0848 47.1135 33.3158C47.4834 33.5399 47.773 33.8456 47.9823 34.2328C48.1987 34.6132 48.3068 35.0446 48.3068 35.5269C48.3068 36.0024 48.1987 36.4337 47.9823 36.8209C47.773 37.2013 47.4834 37.5036 47.1135 37.7278C46.7507 37.952 46.3424 38.064 45.8889 38.064ZM45.7004 37.0043C45.9796 37.0043 46.2238 36.9432 46.4332 36.8209C46.6495 36.6919 46.817 36.5152 46.9356 36.2911C47.0612 36.0669 47.124 35.8088 47.124 35.5167C47.124 35.2246 47.0612 34.9664 46.9356 34.7423C46.817 34.5181 46.6495 34.3449 46.4332 34.2226C46.2238 34.0935 45.9796 34.029 45.7004 34.029C45.4213 34.029 45.1736 34.0935 44.9573 34.2226C44.7409 34.3449 44.5735 34.5181 44.4548 34.7423C44.3362 34.9664 44.2769 35.2246 44.2769 35.5167C44.2769 35.8088 44.3362 36.0669 44.4548 36.2911C44.5735 36.5152 44.7409 36.6919 44.9573 36.8209C45.1736 36.9432 45.4213 37.0043 45.7004 37.0043ZM50.4995 40L51.4311 38.0131L53.7653 33.0712H52.4883L51.1274 36.2578L49.84 33.0712H48.5735L50.4837 37.4704L49.2225 40H50.4995ZM31.7742 38.064C31.2718 38.064 30.8182 37.9554 30.4134 37.738C30.0157 37.5138 29.6982 37.2081 29.4609 36.8209C29.2306 36.4337 29.1155 35.999 29.1155 35.5167C29.1155 35.0344 29.2306 34.603 29.4609 34.2226C29.6912 33.8354 30.0017 33.5297 30.3925 33.3056C30.7903 33.0814 31.2299 32.9693 31.7114 32.9693C32.1789 32.9693 32.5906 33.0746 32.9465 33.2852C33.3094 33.4958 33.592 33.7845 33.7944 34.1513C34.0037 34.5181 34.1084 34.9359 34.1084 35.4046C34.1084 35.4861 34.1014 35.571 34.0875 35.6593C34.0805 35.7408 34.0665 35.8326 34.0456 35.9344H30.2973C30.3287 36.0619 30.3744 36.1807 30.4344 36.2911C30.56 36.522 30.7379 36.7021 30.9682 36.8311C31.1985 36.9534 31.4637 37.0145 31.7637 37.0145C32.0219 37.0145 32.2592 36.9704 32.4755 36.8821C32.6988 36.7938 32.8872 36.6647 33.0407 36.4949L33.7734 37.2183C33.5292 37.4968 33.2326 37.7074 32.8837 37.8501C32.5348 37.9927 32.165 38.064 31.7742 38.064ZM30.4239 34.7015C30.3712 34.7981 30.3302 34.9034 30.3009 35.0174H32.9751C32.9449 34.8734 32.9005 34.7443 32.8419 34.6302C32.7372 34.4264 32.5872 34.2702 32.3918 34.1615C32.2033 34.0528 31.9696 33.9984 31.6904 33.9984C31.3974 33.9984 31.1427 34.0596 30.9263 34.1819C30.71 34.3041 30.5425 34.4774 30.4239 34.7015ZM25.3307 37.9621H26.4821V35.2416C26.4821 34.8204 26.5868 34.5113 26.7961 34.3143C27.0054 34.1173 27.2706 34.0188 27.5916 34.0188C27.7382 34.0188 27.8673 34.0392 27.9789 34.08C28.0906 34.1207 28.1917 34.1887 28.2825 34.2838L29.0361 33.5297C28.8617 33.3327 28.6732 33.1901 28.4709 33.1018C28.2685 33.0135 28.0417 32.9693 27.7905 32.9693C27.2183 32.9693 26.7891 33.1629 26.503 33.5501C26.4959 33.5597 26.489 33.5695 26.4821 33.5792V33.0712H25.3307V37.9621ZM22.0735 38.064C21.571 38.064 21.1174 37.9554 20.7127 37.738C20.3149 37.5138 19.9974 37.2081 19.7602 36.8209C19.5299 36.4337 19.4148 35.999 19.4148 35.5167C19.4148 35.0344 19.5299 34.603 19.7602 34.2226C19.9905 33.8354 20.301 33.5297 20.6918 33.3056C21.0895 33.0814 21.5292 32.9693 22.0107 32.9693C22.4782 32.9693 22.8899 33.0746 23.2458 33.2852C23.6087 33.4958 23.8913 33.7845 24.0937 34.1513C24.303 34.5181 24.4077 34.9359 24.4077 35.4046C24.4077 35.4861 24.4007 35.571 24.3867 35.6593C24.3798 35.7408 24.3658 35.8326 24.3449 35.9344H20.5966C20.628 36.0619 20.6736 36.1807 20.7336 36.2911C20.8592 36.522 21.0372 36.7021 21.2675 36.8311C21.4978 36.9534 21.7629 37.0145 22.063 37.0145C22.3212 37.0145 22.5584 36.9704 22.7748 36.8821C22.9981 36.7938 23.1865 36.6647 23.34 36.4949L24.0727 37.2183C23.8285 37.4968 23.5319 37.7074 23.183 37.8501C22.8341 37.9927 22.4642 38.064 22.0735 38.064ZM20.7232 34.7015C20.6705 34.7981 20.6295 34.9034 20.6002 35.0174H23.2743C23.2442 34.8734 23.1998 34.7443 23.1411 34.6302C23.0365 34.4264 22.8864 34.2702 22.691 34.1615C22.5026 34.0528 22.2689 33.9984 21.9897 33.9984C21.6966 33.9984 21.4419 34.0596 21.2256 34.1819C21.0093 34.3041 20.8418 34.4774 20.7232 34.7015ZM11.4157 33.0712L13.4359 37.9621H14.1059L15.2782 35.0476L16.4505 37.9621H17.1204L19.1406 33.0712H17.9474L16.765 36.1612L15.6132 33.0712H14.9432L13.7914 36.1612L12.609 33.0712H11.4157ZM8.49791 38.064C8.00944 38.064 7.56632 37.952 7.16856 37.7278C6.7708 37.4968 6.45329 37.1877 6.21603 36.8005C5.98575 36.4134 5.87061 35.982 5.87061 35.5065C5.87061 35.031 5.98575 34.603 6.21603 34.2226C6.45329 33.8422 6.7708 33.5399 7.16856 33.3158C7.56632 33.0848 8.00944 32.9693 8.49791 32.9693C8.99337 32.9693 9.43997 33.0814 9.83773 33.3056C10.2355 33.5297 10.5495 33.8354 10.7798 34.2226C11.0171 34.603 11.1357 35.031 11.1357 35.5065C11.1357 35.982 11.0171 36.4134 10.7798 36.8005C10.5495 37.1877 10.2355 37.4968 9.83773 37.7278C9.43997 37.952 8.99337 38.064 8.49791 38.064ZM8.49791 36.984C8.78402 36.984 9.03524 36.9228 9.25156 36.8005C9.47487 36.6715 9.64583 36.4949 9.76446 36.2707C9.89007 36.0465 9.95287 35.7918 9.95287 35.5065C9.95287 35.2212 9.89007 34.9698 9.76446 34.7525C9.63885 34.5351 9.46789 34.3653 9.25156 34.243C9.03524 34.1139 8.78402 34.0494 8.49791 34.0494C8.21879 34.0494 7.96757 34.1139 7.74427 34.243C7.52794 34.3653 7.35697 34.5351 7.23137 34.7525C7.11274 34.9698 7.05342 35.2212 7.05342 35.5065C7.05342 35.7918 7.11274 36.0465 7.23137 36.2707C7.35697 36.4949 7.52794 36.6715 7.74427 36.8005C7.96757 36.9228 8.21879 36.984 8.49791 36.984ZM1.49418 35.2721V37.9621H0.290436V30.8295H1.11736H1.49418H3.01194C3.47251 30.8295 3.88422 30.9212 4.24709 31.1046C4.61694 31.288 4.90653 31.5462 5.11588 31.879C5.33221 32.2119 5.44037 32.6025 5.44037 33.0508C5.44037 33.4992 5.33221 33.8898 5.11588 34.2226C4.90653 34.5555 4.61694 34.8136 4.24709 34.997C3.88422 35.1804 3.47251 35.2721 3.01194 35.2721H1.49418ZM1.49418 34.2532H2.94914C3.20036 34.2532 3.42017 34.2056 3.60858 34.1105C3.80397 34.0086 3.95749 33.8694 4.06915 33.6928C4.1808 33.5093 4.23662 33.2954 4.23662 33.0508C4.23662 32.8063 4.1808 32.5957 4.06915 32.4191C3.95749 32.2357 3.80397 32.0964 3.60858 32.0013C3.42017 31.8994 3.20036 31.8485 2.94914 31.8485H1.49418V34.2532Z" fill="black"/>
</svg>
