<svg width="21" height="20" viewBox="0 0 21 20" fill="none" xmlns="http://www.w3.org/2000/svg">
  <path d="M7.58341 15.8334H7.16675C3.83341 15.8334 2.16675 15 2.16675 10.8334V6.66669C2.16675 3.33335 3.83341 1.66669 7.16675 1.66669H13.8334C17.1667 1.66669 18.8334 3.33335 18.8334 6.66669V10.8334C18.8334 14.1667 17.1667 15.8334 13.8334 15.8334H13.4167C13.1584 15.8334 12.9084 15.9584 12.7501 16.1667L11.5001 17.8334C10.9501 18.5667 10.0501 18.5667 9.50008 17.8334L8.25008 16.1667C8.11675 15.9834 7.80841 15.8334 7.58341 15.8334Z" stroke="#B2B2B2" stroke-width="1.5" stroke-miterlimit="10" stroke-linecap="round" stroke-linejoin="round"/>
  <path d="M6.33325 6.66669H14.6666" stroke="#B2B2B2" stroke-width="1.5" stroke-linecap="round" stroke-linejoin="round"/>
  <path d="M6.33325 10.8333H11.3333" stroke="#B2B2B2" stroke-width="1.5" stroke-linecap="round" stroke-linejoin="round"/>
</svg>