<svg width="24" height="25" viewBox="0 0 24 25" fill="none" xmlns="http://www.w3.org/2000/svg">
<g id="message-text">
<path id="Vector" opacity="0.3" d="M2 12.9862V7.00624C2 4.24624 4.24 2.01624 7 2.01624H17C19.76 2.01624 22 4.24624 22 7.00624V13.9862C22 16.7362 19.76 18.9662 17 18.9662H15.5C15.19 18.9662 14.89 19.1162 14.7 19.3662L13.2 21.3562C12.54 22.2362 11.46 22.2362 10.8 21.3562L9.3 19.3662C9.14 19.1462 8.78 18.9662 8.5 18.9662H7C4.24 18.9662 2 16.7362 2 13.9862V12.9862Z" fill="#64AB7A"/>
<path id="Vector_2" d="M17 8.76624H7C6.59 8.76624 6.25 8.42624 6.25 8.01624C6.25 7.60624 6.59 7.26624 7 7.26624H17C17.41 7.26624 17.75 7.60624 17.75 8.01624C17.75 8.42624 17.41 8.76624 17 8.76624Z" fill="#64AB7A"/>
<path id="Vector_3" d="M13 13.7662H7C6.59 13.7662 6.25 13.4262 6.25 13.0162C6.25 12.6062 6.59 12.2662 7 12.2662H13C13.41 12.2662 13.75 12.6062 13.75 13.0162C13.75 13.4262 13.41 13.7662 13 13.7662Z" fill="#64AB7A"/>
</g>
</svg>
