<svg width="16" height="17" viewBox="0 0 16 17" fill="none" xmlns="http://www.w3.org/2000/svg">
<g id="vuesax/linear/percentage-square">
<path id="Vector" d="M5.99967 1.83333H9.99967C13.333 1.83333 14.6663 3.16667 14.6663 6.5V10.5C14.6663 13.8333 13.333 15.1667 9.99967 15.1667H5.99967C2.66634 15.1667 1.33301 13.8333 1.33301 10.5V6.5C1.33301 3.16667 2.66634 1.83333 5.99967 1.83333Z" stroke="#666666" stroke-linecap="round" stroke-linejoin="round"/>
<path id="Vector_2" d="M5.71289 10.68L10.0729 6.32001" stroke="#666666" stroke-linecap="round" stroke-linejoin="round"/>
<path id="Vector_3" d="M5.987 7.41333C6.43987 7.41333 6.80699 7.04622 6.80699 6.59334C6.80699 6.14047 6.43987 5.77333 5.987 5.77333C5.53413 5.77333 5.16699 6.14047 5.16699 6.59334C5.16699 7.04622 5.53413 7.41333 5.987 7.41333Z" stroke="#666666" stroke-linecap="round" stroke-linejoin="round"/>
<path id="Vector_4" d="M10.3464 11.2267C10.7992 11.2267 11.1664 10.8595 11.1664 10.4067C11.1664 9.95378 10.7992 9.58667 10.3464 9.58667C9.89348 9.58667 9.52637 9.95378 9.52637 10.4067C9.52637 10.8595 9.89348 11.2267 10.3464 11.2267Z" stroke="#666666" stroke-linecap="round" stroke-linejoin="round"/>
</g>
</svg>
