<svg width="24" height="24" viewBox="0 0 24 24" fill="none" xmlns="http://www.w3.org/2000/svg">
<rect x="0.5" y="-0.5" width="23" height="23" rx="11.5" transform="matrix(1 0 0 -1 0 23)" fill="#883EC2"/>
<rect x="0.5" y="-0.5" width="23" height="23" rx="11.5" transform="matrix(1 0 0 -1 0 23)" stroke="#F2F5FB"/>
<path d="M15.0355 16.4418H8.96457C8.69729 16.4418 8.45548 16.27 8.36638 16.0218L5.71911 8.60817C5.50911 8.01636 6.18366 7.51363 6.68639 7.87636L9.23184 9.69636C9.56911 9.93817 10.0527 9.79181 10.1991 9.40363L11.4018 6.19636C11.6055 5.64272 12.3882 5.64272 12.5918 6.19636L13.7946 9.40363C13.9409 9.79817 14.4182 9.93817 14.7618 9.69636L17.3073 7.87636C17.8164 7.51363 18.4846 8.02272 18.2746 8.60817L15.6273 16.0218C15.5446 16.27 15.3027 16.4418 15.0355 16.4418Z" fill="white"/>
<path d="M15.1818 18.3636H8.81817C8.55726 18.3636 8.3409 18.1472 8.3409 17.8863C8.3409 17.6254 8.55726 17.4091 8.81817 17.4091H15.1818C15.4427 17.4091 15.6591 17.6254 15.6591 17.8863C15.6591 18.1472 15.4427 18.3636 15.1818 18.3636Z" fill="white"/>
<path d="M13.5909 13.75H10.4091C10.1482 13.75 9.93184 13.5336 9.93184 13.2727C9.93184 13.0118 10.1482 12.7954 10.4091 12.7954H13.5909C13.8518 12.7954 14.0682 13.0118 14.0682 13.2727C14.0682 13.5336 13.8518 13.75 13.5909 13.75Z" fill="#883EC2"/>
</svg>
