<svg width="24" height="25" viewBox="0 0 24 25" fill="none" xmlns="http://www.w3.org/2000/svg">
<g id="scan">
<path id="Vector" opacity="0.4" d="M3 8.76624C2.59 8.76624 2.25 8.42624 2.25 8.01624V6.51624C2.25 4.17624 4.16 2.26624 6.5 2.26624H8C8.41 2.26624 8.75 2.60624 8.75 3.01624C8.75 3.42624 8.41 3.76624 8 3.76624H6.5C4.98 3.76624 3.75 4.99624 3.75 6.51624V8.01624C3.75 8.42624 3.41 8.76624 3 8.76624Z" fill="black"/>
<path id="Vector_2" opacity="0.4" d="M8 21.7662H6.5C4.16 21.7662 2.25 19.8562 2.25 17.5162V16.0162C2.25 15.6062 2.59 15.2662 3 15.2662C3.41 15.2662 3.75 15.6062 3.75 16.0162V17.5162C3.75 19.0362 4.98 20.2662 6.5 20.2662H8C8.41 20.2662 8.75 20.6062 8.75 21.0162C8.75 21.4262 8.41 21.7662 8 21.7662Z" fill="black"/>
<path id="Vector_3" opacity="0.4" d="M17.5 21.7662H16C15.59 21.7662 15.25 21.4262 15.25 21.0162C15.25 20.6062 15.59 20.2662 16 20.2662H17.5C19.02 20.2662 20.25 19.0362 20.25 17.5162V16.0162C20.25 15.6062 20.59 15.2662 21 15.2662C21.41 15.2662 21.75 15.6062 21.75 16.0162V17.5162C21.75 19.8562 19.84 21.7662 17.5 21.7662Z" fill="black"/>
<path id="Vector_4" opacity="0.4" d="M21 8.76624C20.59 8.76624 20.25 8.42624 20.25 8.01624V6.51624C20.25 4.99624 19.02 3.76624 17.5 3.76624H16C15.59 3.76624 15.25 3.42624 15.25 3.01624C15.25 2.60624 15.59 2.26624 16 2.26624H17.5C19.84 2.26624 21.75 4.17624 21.75 6.51624V8.01624C21.75 8.42624 21.41 8.76624 21 8.76624Z" fill="black"/>
<path id="Vector_5" d="M15.82 9.76624H8.16995C8.00995 9.76624 7.90995 9.58623 7.98995 9.45623C8.82995 8.13623 10.3099 7.26624 11.9899 7.26624C13.6699 7.26624 15.1499 8.13623 15.9899 9.45623C16.0799 9.58623 15.9799 9.76624 15.82 9.76624Z" fill="black"/>
<path id="Vector_6" d="M21.75 12.0162C21.75 12.4262 21.41 12.7662 21 12.7662H16.69C16.33 15.0262 14.37 16.7662 12 16.7662C9.63 16.7662 7.67 15.0262 7.31 12.7662H3C2.59 12.7662 2.25 12.4262 2.25 12.0162C2.25 11.6062 2.59 11.2662 3 11.2662H21C21.41 11.2662 21.75 11.6062 21.75 12.0162Z" fill="black"/>
</g>
</svg>
