<svg width="112" height="115" viewBox="0 0 112 115" fill="none" xmlns="http://www.w3.org/2000/svg">
<rect x="10" width="92" height="92" rx="23" fill="#ECFAF0"/>
<rect x="10.3" y="0.3" width="91.4" height="91.4" rx="22.7" stroke="white" stroke-opacity="0.1" stroke-width="0.6"/>
<g filter="url(#filter0_di_1547_13005)">
<rect x="18" y="8" width="76" height="76" rx="16" fill="white"/>
<path fill-rule="evenodd" clip-rule="evenodd" d="M31 35V48.0991H33.7529H34.4702H40.383V45.2538H34.4702V35H31ZM40.6506 48.0991L45.9819 35H49.3357L54.6088 48.0991H50.9836L50.1567 45.8081H45.0454L44.1983 48.0991H40.6506ZM47.6318 38.8124L49.2098 43.1846H46.0153L47.6318 38.8124ZM59.3657 42.7966V48.0991H55.8956V35H58.6484H59.3657H61.7502C62.6808 35 63.495 35.1663 64.1929 35.4988C64.9038 35.8314 65.4595 36.2871 65.8601 36.866C66.2608 37.4449 66.4611 38.1223 66.4611 38.8983C66.4611 39.6743 66.2543 40.3579 65.8408 40.9491C65.4401 41.528 64.8779 41.9837 64.1541 42.3163C63.841 42.4548 63.505 42.5634 63.1459 42.642L67.1493 47.835L72.3731 35H75.7269L81 48.0991H77.3747L76.5479 45.8081H71.4365L70.5895 48.0991H67.3529H67.0418H63.3399L59.5697 42.7966H59.3657ZM59.3657 40.4318H61.2656C61.8342 40.4318 62.2672 40.3024 62.5645 40.0438C62.8746 39.7728 63.0297 39.4095 63.0297 38.9537C63.0297 38.5103 62.8746 38.1531 62.5645 37.8822C62.2672 37.5989 61.8342 37.4572 61.2656 37.4572H59.3657V40.4318ZM72.4065 43.1846H75.601L74.023 38.8124L72.4065 43.1846Z" fill="#4AA064"/>
<path fill-rule="evenodd" clip-rule="evenodd" d="M75.0076 55.9352C74.792 55.9352 74.5999 55.8922 74.4313 55.8063C74.3198 55.747 74.2238 55.6738 74.1432 55.5867V55.8791H73.4963V51.8441H74.1432V53.4885C74.225 53.3994 74.323 53.3258 74.4372 53.2676C74.6058 53.1779 74.7959 53.1331 75.0076 53.1331C75.2624 53.1331 75.4918 53.1966 75.6956 53.3236C75.9034 53.4469 76.0661 53.615 76.1837 53.828C76.3052 54.0372 76.366 54.2745 76.366 54.5397C76.366 54.8013 76.3052 55.0385 76.1837 55.2515C76.0661 55.4607 75.9034 55.627 75.6956 55.7502C75.4918 55.8735 75.2624 55.9352 75.0076 55.9352ZM74.9018 55.3523C75.0586 55.3523 75.1958 55.3187 75.3134 55.2515C75.4349 55.1805 75.529 55.0833 75.5957 54.9601C75.6662 54.8368 75.7015 54.6948 75.7015 54.5341C75.7015 54.3735 75.6662 54.2315 75.5957 54.1082C75.529 53.9849 75.4349 53.8897 75.3134 53.8224C75.1958 53.7514 75.0586 53.7159 74.9018 53.7159C74.7449 53.7159 74.6058 53.7514 74.4842 53.8224C74.3627 53.8897 74.2686 53.9849 74.202 54.1082C74.1353 54.2315 74.102 54.3735 74.102 54.5341C74.102 54.6948 74.1353 54.8368 74.202 54.9601C74.2686 55.0833 74.3627 55.1805 74.4842 55.2515C74.6058 55.3187 74.7449 55.3523 74.9018 55.3523ZM76.9075 51.8441V55.8791H77.5543V51.8441H76.9075ZM78.8211 55.7559C79.0485 55.8754 79.3033 55.9352 79.5856 55.9352C79.8051 55.9352 80.0129 55.896 80.2089 55.8175C80.4049 55.739 80.5715 55.6232 80.7088 55.47L80.2971 55.0721C80.2109 55.1655 80.105 55.2365 79.9796 55.2851C79.858 55.3337 79.7248 55.358 79.5797 55.358C79.4111 55.358 79.2621 55.3243 79.1328 55.2571C79.0034 55.1861 78.9034 55.0871 78.8329 54.9601C78.7992 54.8994 78.7735 54.834 78.7559 54.7639H80.8617C80.8734 54.7079 80.8813 54.6574 80.8852 54.6126C80.893 54.564 80.8969 54.5173 80.8969 54.4725C80.8969 54.2147 80.8381 53.9849 80.7205 53.7832C80.6068 53.5814 80.4481 53.4226 80.2442 53.3068C80.0443 53.191 79.813 53.1331 79.5503 53.1331C79.2798 53.1331 79.0328 53.1947 78.8093 53.318C78.5898 53.4413 78.4154 53.6094 78.286 53.8224C78.1566 54.0316 78.0919 54.2689 78.0919 54.5341C78.0919 54.7994 78.1566 55.0385 78.286 55.2515C78.4193 55.4644 78.5976 55.6326 78.8211 55.7559ZM78.7579 54.2595C78.7743 54.1968 78.7974 54.1389 78.827 54.0858C78.8936 53.9625 78.9877 53.8672 79.1093 53.8C79.2308 53.7327 79.3739 53.6991 79.5385 53.6991C79.6953 53.6991 79.8267 53.729 79.9325 53.7888C80.0423 53.8486 80.1266 53.9345 80.1854 54.0466C80.2183 54.1094 80.2433 54.1803 80.2602 54.2595H78.7579ZM71.1648 53.1891V55.8791H71.8116V54.3828C71.8116 54.1512 71.8704 53.9812 71.988 53.8728C72.1056 53.7645 72.2546 53.7103 72.435 53.7103C72.5173 53.7103 72.5898 53.7215 72.6525 53.7439C72.7153 53.7664 72.7721 53.8037 72.8231 53.856L73.2465 53.4413C73.1485 53.333 73.0426 53.2545 72.9289 53.2059C72.8152 53.1574 72.6878 53.1331 72.5467 53.1331C72.2252 53.1331 71.9841 53.2396 71.8234 53.4525L71.8116 53.4685V53.1891H71.1648ZM68.9356 55.9352C68.6808 55.9352 68.4494 55.8735 68.2417 55.7502C68.0378 55.627 67.8751 55.4607 67.7536 55.2515C67.636 55.0385 67.5772 54.8013 67.5772 54.5397C67.5772 54.2745 67.636 54.0372 67.7536 53.828C67.8751 53.615 68.0378 53.4469 68.2417 53.3236C68.4494 53.1966 68.6808 53.1331 68.9356 53.1331C69.1512 53.1331 69.3413 53.1779 69.506 53.2676C69.6202 53.3258 69.7182 53.3994 69.8 53.4885V53.1891H70.4469V55.8791H69.8V55.5839C69.7206 55.6722 69.6246 55.7463 69.5119 55.8063C69.3433 55.8922 69.1512 55.9352 68.9356 55.9352ZM69.0414 55.3523C69.2806 55.3523 69.4727 55.2758 69.6177 55.1226C69.7667 54.9694 69.8412 54.7732 69.8412 54.5341C69.8412 54.3735 69.8079 54.2315 69.7412 54.1082C69.6746 53.9849 69.5805 53.8897 69.4589 53.8224C69.3413 53.7514 69.2022 53.7159 69.0414 53.7159C68.8846 53.7159 68.7454 53.7514 68.6239 53.8224C68.5063 53.8897 68.4122 53.9849 68.3416 54.1082C68.275 54.2315 68.2417 54.3735 68.2417 54.5341C68.2417 54.6948 68.275 54.8368 68.3416 54.9601C68.4122 55.0833 68.5063 55.1805 68.6239 55.2515C68.7454 55.3187 68.8846 55.3523 69.0414 55.3523ZM62.8916 51.9562V55.8791H63.5679V53.367L64.6852 55.117H65.1556L66.2729 53.367V55.8791H66.9492V51.9562H66.4787L64.9204 54.4008L63.362 51.9562H62.8916Z" fill="#4AA064"/>
<path fill-rule="evenodd" clip-rule="evenodd" d="M51.1687 55.7502C51.3765 55.8735 51.6078 55.9352 51.8626 55.9352C52.0782 55.9352 52.2703 55.8922 52.4389 55.8063C52.5516 55.7463 52.6476 55.6722 52.727 55.5839V55.8791H53.3739V51.8441H52.727V53.4885C52.6452 53.3994 52.5472 53.3258 52.433 53.2676C52.2684 53.1779 52.0782 53.1331 51.8626 53.1331C51.6078 53.1331 51.3765 53.1966 51.1687 53.3236C50.9648 53.4469 50.8021 53.615 50.6806 53.828C50.563 54.0372 50.5042 54.2745 50.5042 54.5397C50.5042 54.8013 50.563 55.0385 50.6806 55.2515C50.8021 55.4607 50.9648 55.627 51.1687 55.7502ZM52.386 55.2515C52.2684 55.3187 52.1292 55.3523 51.9684 55.3523C51.8116 55.3523 51.6725 55.3187 51.5509 55.2515C51.4333 55.1805 51.3392 55.0833 51.2687 54.9601C51.202 54.8368 51.1687 54.6948 51.1687 54.5341C51.1687 54.3735 51.202 54.2315 51.2687 54.1082C51.3392 53.9849 51.4333 53.8897 51.5509 53.8224C51.6725 53.7514 51.8116 53.7159 51.9684 53.7159C52.1292 53.7159 52.2684 53.7514 52.386 53.8224C52.5075 53.8897 52.6016 53.9849 52.6682 54.1082C52.7349 54.2315 52.7682 54.3735 52.7682 54.5341C52.7682 54.6948 52.7349 54.8368 52.6682 54.9601C52.6016 55.0833 52.5075 55.1805 52.386 55.2515ZM56.7803 55.9352C56.5647 55.9352 56.3726 55.8922 56.204 55.8063C56.0925 55.747 55.9965 55.6738 55.9159 55.5867V55.8791H55.269V51.8441H55.9159V53.4885C55.9977 53.3994 56.0957 53.3258 56.2099 53.2676C56.3785 53.1779 56.5686 53.1331 56.7803 53.1331C57.0351 53.1331 57.2645 53.1966 57.4683 53.3236C57.6761 53.4469 57.8388 53.615 57.9564 53.828C58.0779 54.0372 58.1387 54.2745 58.1387 54.5397C58.1387 54.8013 58.0779 55.0385 57.9564 55.2515C57.8388 55.4607 57.6761 55.627 57.4683 55.7502C57.2645 55.8735 57.0351 55.9352 56.7803 55.9352ZM56.6744 55.3523C56.8313 55.3523 56.9685 55.3187 57.0861 55.2515C57.2076 55.1805 57.3017 55.0833 57.3684 54.9601C57.4389 54.8368 57.4742 54.6948 57.4742 54.5341C57.4742 54.3735 57.4389 54.2315 57.3684 54.1082C57.3017 53.9849 57.2076 53.8897 57.0861 53.8224C56.9685 53.7514 56.8313 53.7159 56.6744 53.7159C56.5176 53.7159 56.3785 53.7514 56.2569 53.8224C56.1354 53.8897 56.0413 53.9849 55.9747 54.1082C55.908 54.2315 55.8747 54.3735 55.8747 54.5341C55.8747 54.6948 55.908 54.8368 55.9747 54.9601C56.0413 55.0833 56.1354 55.1805 56.2569 55.2515C56.3785 55.3187 56.5176 55.3523 56.6744 55.3523ZM59.3705 57L59.8939 55.9072L61.2053 53.1891H60.4878L59.7233 54.9418L59.0001 53.1891H58.2885L59.3617 55.6087L58.6531 57H59.3705ZM48.8507 55.9352C48.5684 55.9352 48.3136 55.8754 48.0862 55.7559C47.8628 55.6326 47.6844 55.4644 47.5511 55.2515C47.4217 55.0385 47.3571 54.7994 47.3571 54.5341C47.3571 54.2689 47.4217 54.0316 47.5511 53.8224C47.6805 53.6094 47.8549 53.4413 48.0745 53.318C48.2979 53.1947 48.5449 53.1331 48.8154 53.1331C49.0781 53.1331 49.3094 53.191 49.5093 53.3068C49.7132 53.4226 49.872 53.5814 49.9857 53.7832C50.1033 53.9849 50.1621 54.2147 50.1621 54.4725C50.1621 54.5173 50.1581 54.564 50.1503 54.6126C50.1464 54.6574 50.1385 54.7079 50.1268 54.7639H48.021C48.0386 54.834 48.0643 54.8994 48.098 54.9601C48.1686 55.0871 48.2685 55.1861 48.3979 55.2571C48.5273 55.3243 48.6763 55.358 48.8448 55.358C48.9899 55.358 49.1232 55.3337 49.2447 55.2851C49.3702 55.2365 49.476 55.1655 49.5623 55.0721L49.9739 55.47C49.8367 55.6232 49.6701 55.739 49.474 55.8175C49.278 55.896 49.0702 55.9352 48.8507 55.9352ZM48.0921 54.0858C48.0625 54.1389 48.0395 54.1968 48.023 54.2595H49.5254C49.5084 54.1803 49.4835 54.1094 49.4505 54.0466C49.3917 53.9345 49.3074 53.8486 49.1977 53.7888C49.0918 53.729 48.9605 53.6991 48.8037 53.6991C48.639 53.6991 48.4959 53.7327 48.3744 53.8C48.2529 53.8672 48.1588 53.9625 48.0921 54.0858ZM45.2308 53.1891V55.8791H45.8776V54.3828C45.8776 54.1512 45.9364 53.9812 46.054 53.8728C46.1716 53.7645 46.3206 53.7103 46.5009 53.7103C46.5833 53.7103 46.6558 53.7215 46.7185 53.7439C46.7813 53.7664 46.8381 53.8037 46.8891 53.856L47.3125 53.4413C47.2145 53.333 47.1086 53.2545 46.9949 53.2059C46.8812 53.1574 46.7538 53.1331 46.6127 53.1331C46.2912 53.1331 46.0501 53.2396 45.8894 53.4525L45.8776 53.4685V53.1891H45.2308ZM43.4009 55.9352C43.1186 55.9352 42.8638 55.8754 42.6364 55.7559C42.4129 55.6326 42.2346 55.4644 42.1013 55.2515C41.9719 55.0385 41.9072 54.7994 41.9072 54.5341C41.9072 54.2689 41.9719 54.0316 42.1013 53.8224C42.2306 53.6094 42.4051 53.4413 42.6246 53.318C42.8481 53.1947 43.0951 53.1331 43.3656 53.1331C43.6282 53.1331 43.8595 53.191 44.0595 53.3068C44.2633 53.4226 44.4221 53.5814 44.5358 53.7832C44.6534 53.9849 44.7122 54.2147 44.7122 54.4725C44.7122 54.5173 44.7083 54.564 44.7005 54.6126C44.6965 54.6574 44.6887 54.7079 44.6769 54.7639H42.5712C42.5888 54.834 42.6144 54.8994 42.6482 54.9601C42.7187 55.0871 42.8187 55.1861 42.9481 55.2571C43.0774 55.3243 43.2264 55.358 43.395 55.358C43.54 55.358 43.6733 55.3337 43.7949 55.2851C43.9203 55.2365 44.0262 55.1655 44.1124 55.0721L44.524 55.47C44.3868 55.6232 44.2202 55.739 44.0242 55.8175C43.8282 55.896 43.6204 55.9352 43.4009 55.9352ZM42.5732 54.2595H44.0755C44.0586 54.1803 44.0336 54.1094 44.0007 54.0466C43.9419 53.9345 43.8576 53.8486 43.7478 53.7888C43.642 53.729 43.5106 53.6991 43.3538 53.6991C43.1892 53.6991 43.0461 53.7327 42.9245 53.8C42.803 53.8672 42.7089 53.9625 42.6423 54.0858C42.6127 54.1389 42.5896 54.1968 42.5732 54.2595ZM37.4134 53.1891L38.5483 55.8791H38.9247L39.5833 54.2762L40.2419 55.8791H40.6183L41.7532 53.1891H41.0828L40.4186 54.8886L39.7715 53.1891H39.3951L38.748 54.8886L38.0838 53.1891H37.4134ZM35.7742 55.9352C35.4997 55.9352 35.2508 55.8735 35.0273 55.7502C34.8039 55.6232 34.6255 55.4532 34.4922 55.2403C34.3628 55.0273 34.2981 54.7901 34.2981 54.5285C34.2981 54.267 34.3628 54.0316 34.4922 53.8224C34.6255 53.6132 34.8039 53.4469 35.0273 53.3236C35.2508 53.1966 35.4997 53.1331 35.7742 53.1331C36.0525 53.1331 36.3034 53.1947 36.5269 53.318C36.7503 53.4413 36.9267 53.6094 37.0561 53.8224C37.1894 54.0316 37.256 54.267 37.256 54.5285C37.256 54.7901 37.1894 55.0273 37.0561 55.2403C36.9267 55.4532 36.7503 55.6232 36.5269 55.7502C36.3034 55.8735 36.0525 55.9352 35.7742 55.9352ZM35.7742 55.3411C35.9349 55.3411 36.076 55.3075 36.1975 55.2403C36.323 55.1693 36.419 55.0721 36.4857 54.9488C36.5563 54.8256 36.5915 54.6854 36.5915 54.5285C36.5915 54.3716 36.5563 54.2334 36.4857 54.1138C36.4151 53.9943 36.3191 53.9009 36.1975 53.8336C36.076 53.7626 35.9349 53.7271 35.7742 53.7271C35.6173 53.7271 35.4762 53.7626 35.3508 53.8336C35.2292 53.9009 35.1332 53.9943 35.0626 54.1138C34.996 54.2334 34.9626 54.3716 34.9626 54.5285C34.9626 54.6854 34.996 54.8256 35.0626 54.9488C35.1332 55.0721 35.2292 55.1693 35.3508 55.2403C35.4762 55.3075 35.6173 55.3411 35.7742 55.3411ZM31.8395 54.3996V55.8791H31.1632V51.9562H31.6278H31.8395H32.6921C32.9509 51.9562 33.1822 52.0066 33.386 52.1075C33.5938 52.2084 33.7565 52.3504 33.8741 52.5334C33.9957 52.7165 34.0564 52.9313 34.0564 53.1779C34.0564 53.4245 33.9957 53.6393 33.8741 53.8224C33.7565 54.0055 33.5938 54.1474 33.386 54.2483C33.1822 54.3492 32.9509 54.3996 32.6921 54.3996H31.8395ZM31.8395 53.8392H32.6569C32.798 53.8392 32.9215 53.8131 33.0273 53.7608C33.1371 53.7047 33.2234 53.6281 33.2861 53.531C33.3488 53.4301 33.3802 53.3124 33.3802 53.1779C33.3802 53.0434 33.3488 52.9276 33.2861 52.8305C33.2234 52.7296 33.1371 52.653 33.0273 52.6007C32.9215 52.5446 32.798 52.5166 32.6569 52.5166H31.8395V53.8392Z" fill="black"/>
</g>
<defs>
<filter id="filter0_di_1547_13005" x="0.200001" y="3.2" width="111.6" height="111.6" filterUnits="userSpaceOnUse" color-interpolation-filters="sRGB">
<feFlood flood-opacity="0" result="BackgroundImageFix"/>
<feColorMatrix in="SourceAlpha" type="matrix" values="0 0 0 0 0 0 0 0 0 0 0 0 0 0 0 0 0 0 127 0" result="hardAlpha"/>
<feOffset dy="13"/>
<feGaussianBlur stdDeviation="8.9"/>
<feComposite in2="hardAlpha" operator="out"/>
<feColorMatrix type="matrix" values="0 0 0 0 0.65098 0 0 0 0 0.741176 0 0 0 0 0.678431 0 0 0 0.7 0"/>
<feBlend mode="normal" in2="BackgroundImageFix" result="effect1_dropShadow_1547_13005"/>
<feBlend mode="normal" in="SourceGraphic" in2="effect1_dropShadow_1547_13005" result="shape"/>
<feColorMatrix in="SourceAlpha" type="matrix" values="0 0 0 0 0 0 0 0 0 0 0 0 0 0 0 0 0 0 127 0" result="hardAlpha"/>
<feMorphology radius="5" operator="dilate" in="SourceAlpha" result="effect2_innerShadow_1547_13005"/>
<feOffset dy="4"/>
<feGaussianBlur stdDeviation="7.15"/>
<feComposite in2="hardAlpha" operator="arithmetic" k2="-1" k3="1"/>
<feColorMatrix type="matrix" values="0 0 0 0 1 0 0 0 0 1 0 0 0 0 1 0 0 0 0.15 0"/>
<feBlend mode="normal" in2="shape" result="effect2_innerShadow_1547_13005"/>
</filter>
</defs>
</svg>
